<svg width="24" height="24" viewBox="0 0 24 24" fill="none" xmlns="http://www.w3.org/2000/svg">
<path fill-rule="evenodd" clip-rule="evenodd" d="M4.52594 17.5257L5.43107 14.8103H6.56949L7.47463 17.5257L10.19 18.4309V19.5693L7.47463 20.4744L6.56949 23.1898H5.43107L4.52594 20.4744L1.81055 19.5693V18.4309L4.52594 17.5257Z" fill="#A700FF"/>
<path d="M12.3051 3.00006C12.2429 2.99997 12.1792 3 12.1139 3.00003L12.0185 3.00006H12.3051Z" fill="#A700FF"/>
<path d="M12.0003 3.00006L9.75899 3.00006C8.95401 3.00005 8.28965 3.00004 7.74846 3.04426C7.18636 3.09018 6.66966 3.18875 6.18432 3.43604C5.43167 3.81953 4.81975 4.43145 4.43626 5.1841C4.18897 5.66944 4.0904 6.18614 4.04448 6.74824C4.00026 7.28943 4.00027 7.95378 4.00028 8.75875V13.0001H7.50028L8.50028 16.0001L12.0003 17.0001V21.0001H14.2416C15.0466 21.0001 15.7109 21.0001 16.2521 20.9559C16.8142 20.9099 17.3309 20.8114 17.8162 20.5641C18.5689 20.1806 19.1808 19.5687 19.5643 18.816C19.8116 18.3307 19.9102 17.814 19.9561 17.2519C20.0003 16.7107 20.0003 16.0463 20.0003 15.2414V11.0001H13.0003C12.448 11.0001 12.0003 10.5523 12.0003 10.0001V3.00006Z" fill="#A700FF"/>
<path d="M20.0003 10.9883L20.0003 10.8864C20.0003 10.8206 20.0004 10.7565 20.0003 10.6939V10.9883Z" fill="#A700FF"/>
<path d="M19.8024 9.00006C19.7055 8.70365 19.5742 8.41923 19.4108 8.15271C19.1622 7.74699 18.8228 7.40789 18.3736 6.95909L16.0413 4.62679C15.5925 4.17756 15.2534 3.83813 14.8476 3.5895C14.5811 3.42618 14.2967 3.29486 14.0003 3.19798V9.00006H19.8024Z" fill="#A700FF"/>
</svg>
