<svg width="20" height="20" viewBox="0 0 20 20" fill="none" xmlns="http://www.w3.org/2000/svg">
<g clip-path="url(#clip0_4083_36050)">
<path d="M2.5 10C2.5 8.01088 3.29018 6.10322 4.6967 4.6967C6.10322 3.29018 8.01088 2.5 10 2.5C12.0967 2.50789 14.1092 3.32602 15.6167 4.78333L17.5 6.66667" stroke="#A700FF" stroke-width="1.66667" stroke-linecap="round" stroke-linejoin="round"/>
<path d="M17.5 2.5V6.66667" stroke="#A700FF" stroke-width="1.66667" stroke-linecap="round" stroke-linejoin="round"/>
<path d="M17.5 10C17.5 11.9891 16.7098 13.8968 15.3033 15.3033C13.8968 16.7098 11.9891 17.5 10 17.5C7.90329 17.4921 5.89081 16.674 4.38333 15.2167L2.5 13.3333" stroke="#A700FF" stroke-width="1.66667" stroke-linecap="round" stroke-linejoin="round"/>
<path d="M2.5 13.333V17.4997" stroke="#A700FF" stroke-width="1.66667" stroke-linecap="round" stroke-linejoin="round"/>
<path d="M6.44579 10.5998C6.36172 10.6001 6.27929 10.5753 6.20808 10.5284C6.13688 10.4814 6.07981 10.4142 6.04352 10.3346C6.00723 10.255 5.9932 10.1661 6.00307 10.0785C6.01294 9.99079 6.04629 9.90785 6.09926 9.83929L10.4976 5.08053C10.5306 5.04054 10.5755 5.01351 10.6251 5.00389C10.6746 4.99427 10.7258 5.00262 10.7703 5.02758C10.8147 5.05253 10.8497 5.09261 10.8696 5.14123C10.8895 5.18985 10.893 5.24412 10.8797 5.29514L10.0267 8.10374C10.0015 8.17443 9.99306 8.25048 10.002 8.32535C10.011 8.40023 10.0372 8.4717 10.0782 8.53363C10.1193 8.59556 10.1741 8.64611 10.2378 8.68093C10.3016 8.71576 10.3724 8.73382 10.4443 8.73358H13.5542C13.6383 8.73328 13.7207 8.75803 13.7919 8.80497C13.8631 8.8519 13.9202 8.9191 13.9565 8.99873C13.9928 9.07837 14.0068 9.16719 13.9969 9.25487C13.9871 9.34254 13.9537 9.42548 13.9007 9.49404L9.50241 14.2528C9.46942 14.2928 9.42446 14.3198 9.37491 14.3294C9.32537 14.3391 9.27418 14.3307 9.22975 14.3058C9.18531 14.2808 9.15028 14.2407 9.1304 14.1921C9.11052 14.1435 9.10697 14.0892 9.12033 14.0382L9.97334 11.2296C9.9985 11.1589 10.0069 11.0829 9.99796 11.008C9.98898 10.9331 9.96283 10.8616 9.92177 10.7997C9.8807 10.7378 9.82594 10.6872 9.76219 10.6524C9.69844 10.6176 9.62759 10.5995 9.55572 10.5998H6.44579Z" stroke="#A700FF" stroke-width="1.4" stroke-linecap="round" stroke-linejoin="round"/>
</g>
<defs>
<clipPath id="clip0_4083_36050">
<rect width="20" height="20" fill="white"/>
</clipPath>
</defs>
</svg>
