<svg width="24" height="24" viewBox="0 0 24 24" fill="none" xmlns="http://www.w3.org/2000/svg">
<mask id="path-1-outside-1_96_27012" maskUnits="userSpaceOnUse" x="1" y="1" width="22" height="22" fill="black">
<rect fill="white" x="1" y="1" width="22" height="22"/>
<path d="M21.9987 11.937C21.9987 12.1719 22.001 12.4075 21.9987 12.6424C21.9927 13.2401 21.6818 13.6308 21.0976 13.7685C20.6068 13.8845 20.1137 13.9906 19.6244 14.1148C19.5476 14.1344 19.4595 14.2119 19.4264 14.285C19.2435 14.687 19.0643 15.0912 18.9122 15.5053C18.8754 15.6054 18.9092 15.771 18.9732 15.8613C19.2503 16.249 19.5506 16.6202 19.842 16.9981C20.1754 17.4294 20.183 18.0061 19.8164 18.4081C19.4302 18.8319 19.0222 19.2369 18.6006 19.6253C18.2423 19.9558 17.7251 19.9822 17.2877 19.7262C16.8586 19.4748 16.4333 19.2158 16.0125 18.9516C15.8604 18.856 15.7264 18.859 15.566 18.9328C15.2092 19.0969 14.8479 19.2519 14.4813 19.395C14.3299 19.4537 14.2471 19.5342 14.2133 19.6969C14.1192 20.15 14.0108 20.6002 13.9061 21.0511C13.7653 21.6564 13.3415 21.9921 12.7167 21.9944C12.2605 21.9959 11.8035 21.9974 11.3473 21.9936C10.7609 21.9891 10.3695 21.6767 10.2332 21.1046C10.1165 20.6138 10.0111 20.1207 9.88616 19.6321C9.86508 19.5501 9.78302 19.4552 9.70473 19.4198C9.30951 19.2391 8.91053 19.0637 8.50326 18.9139C8.40163 18.8763 8.23526 18.8989 8.14568 18.9614C7.77154 19.2218 7.41546 19.5079 7.05261 19.7842C6.62427 20.1101 6.03934 20.1094 5.64111 19.7428C5.22406 19.3596 4.82432 18.9553 4.43889 18.5405C4.09636 18.1717 4.07453 17.647 4.34855 17.1923C4.59773 16.7775 4.84766 16.3634 5.10587 15.9547C5.20449 15.7973 5.20524 15.6618 5.12318 15.4917C4.95606 15.1439 4.80475 14.7878 4.66774 14.4265C4.60676 14.2646 4.5232 14.1826 4.35232 14.1487C3.8645 14.0508 3.38045 13.9372 2.89489 13.8258C2.37546 13.7068 2.01186 13.2694 2.00508 12.7432C1.99831 12.2456 1.99831 11.7473 2.00508 11.2497C2.01261 10.7393 2.33029 10.3614 2.82865 10.2469C3.34055 10.1295 3.85321 10.0143 4.3621 9.88635C4.44115 9.86602 4.53675 9.79751 4.56988 9.726C4.74678 9.34358 4.90337 8.95212 5.07275 8.56669C5.14502 8.40182 5.13899 8.25578 5.03887 8.09844C4.79045 7.70849 4.55407 7.30951 4.31468 6.91353C3.97065 6.34442 4.03915 5.77981 4.50664 5.31157C4.79496 5.02325 5.08178 4.73342 5.37236 4.4466C5.78565 4.03934 6.41198 3.98137 6.89528 4.30658C7.28523 4.56856 7.67443 4.83204 8.05836 5.10305C8.20741 5.20844 8.33689 5.20166 8.49874 5.12563C8.85407 4.95851 9.21692 4.80494 9.58353 4.66341C9.7371 4.60469 9.81615 4.52264 9.84927 4.36003C9.95015 3.86619 10.0623 3.37386 10.176 2.88304C10.2942 2.36887 10.7391 2.00979 11.2683 2.00376C11.7524 1.99849 12.2364 1.99925 12.7205 2.00301C13.2564 2.00678 13.6344 2.31618 13.7556 2.83862C13.8722 3.34375 13.9844 3.84963 14.1139 4.351C14.1365 4.43908 14.2223 4.5407 14.3051 4.5791C14.6996 4.76127 15.0986 4.93593 15.5066 5.08573C15.6074 5.12262 15.7731 5.09401 15.8634 5.03153C16.2315 4.77483 16.5831 4.49403 16.9399 4.22152C17.3795 3.88577 17.9637 3.88577 18.368 4.25916C18.779 4.63857 19.1742 5.03755 19.5559 5.44632C19.9022 5.81821 19.9315 6.34442 19.6628 6.79384C19.4106 7.21465 19.1562 7.63396 18.8942 8.04876C18.7941 8.20835 18.8038 8.34461 18.8836 8.51248C19.0493 8.86103 19.1998 9.21786 19.3383 9.5777C19.397 9.73052 19.4731 9.81483 19.6395 9.84193C20.11 9.91872 20.5782 10.0083 21.0472 10.0956C21.6186 10.2018 21.9927 10.6489 21.9995 11.2324C22.001 11.4672 21.9987 11.7021 21.9987 11.937ZM21.0585 11.9912C21.0585 11.7842 21.0517 11.5764 21.0607 11.3694C21.0683 11.2113 21.0133 11.1337 20.8515 11.0999C20.3516 10.9937 19.8563 10.8642 19.3556 10.7603C18.9371 10.673 18.6759 10.4216 18.5133 10.0399C18.3454 9.6462 18.1768 9.25324 17.9916 8.86781C17.8049 8.47936 17.8147 8.11199 18.0405 7.74463C18.3123 7.30348 18.575 6.85632 18.8513 6.41819C18.9243 6.30226 18.9198 6.22773 18.8219 6.13288C18.5095 5.8295 18.2024 5.5201 17.8975 5.20994C17.7891 5.09928 17.6874 5.08197 17.5504 5.16854C17.1176 5.4403 16.6772 5.69927 16.2428 5.96952C15.8792 6.19536 15.5149 6.18256 15.1369 6.00716C14.756 5.83025 14.3736 5.65636 13.9852 5.49676C13.6012 5.33867 13.343 5.08724 13.2437 4.67244C13.1164 4.14172 12.9659 3.61702 12.8371 3.08704C12.7995 2.93122 12.7325 2.86949 12.5691 2.87325C12.1543 2.88228 11.7396 2.88454 11.3248 2.8725C11.1403 2.86723 11.0718 2.9395 11.0357 3.11264C10.9326 3.60648 10.8068 4.09429 10.7007 4.58738C10.6096 5.01271 10.3469 5.27318 9.95692 5.43503C9.57525 5.59387 9.19433 5.75798 8.82245 5.93866C8.42798 6.13137 8.05309 6.12385 7.6797 5.89499C7.24383 5.62775 6.80344 5.36728 6.37133 5.09477C6.25163 5.01873 6.17108 5.01346 6.06795 5.12036C5.76532 5.43353 5.45592 5.73992 5.14502 6.04555C5.03285 6.15546 5.02231 6.25634 5.11264 6.39034C5.39796 6.81416 5.67725 7.24251 5.95127 7.67462C6.19291 8.05553 6.19894 8.45151 6.00998 8.85952C5.83082 9.24646 5.65767 9.63717 5.4913 10.0309C5.3302 10.4133 5.0735 10.67 4.65494 10.7581C4.16186 10.8627 3.67329 10.99 3.17945 11.0908C2.99125 11.1292 2.93329 11.2158 2.93931 11.401C2.95135 11.7804 2.95135 12.1613 2.93931 12.5415C2.93404 12.7191 2.98975 12.7997 3.16966 12.8366C3.67705 12.942 4.17917 13.0714 4.68505 13.1821C5.06145 13.2649 5.30913 13.4938 5.4627 13.834C5.6524 14.2556 5.83835 14.6787 6.02278 15.1025C6.19668 15.5022 6.19066 15.8892 5.95127 16.2693C5.678 16.7015 5.4228 17.1449 5.14953 17.577C5.075 17.6944 5.08479 17.7689 5.1804 17.8623C5.49206 18.1664 5.79995 18.4743 6.10484 18.786C6.21475 18.8981 6.31562 18.9109 6.45188 18.8259C6.89754 18.5481 7.34621 18.2756 7.79713 18.0076C8.13062 17.8088 8.47541 17.8051 8.82772 17.9677C9.22821 18.1521 9.62945 18.3343 10.0352 18.5059C10.4176 18.6678 10.6721 18.9252 10.7609 19.343C10.8656 19.8361 10.9905 20.3247 11.0952 20.8178C11.1313 20.9879 11.2013 21.0624 11.385 21.0572C11.7998 21.0451 12.2146 21.0481 12.6294 21.0564C12.789 21.0594 12.865 21.006 12.8989 20.8456C13.0058 20.3458 13.1345 19.8504 13.2384 19.3506C13.3257 18.932 13.5756 18.6708 13.9581 18.5082C14.3518 18.3411 14.7455 18.1732 15.1309 17.9872C15.5194 17.7998 15.8875 17.8096 16.2541 18.0347C16.6892 18.3027 17.1304 18.5616 17.5617 18.8349C17.6904 18.917 17.7725 18.9162 17.8809 18.8033C18.1722 18.4984 18.4719 18.201 18.7745 17.9082C18.8994 17.787 18.9183 17.6808 18.8212 17.5288C18.5509 17.1035 18.298 16.6661 18.0315 16.2385C17.8094 15.8824 17.8154 15.5233 17.9833 15.1514C18.1647 14.7502 18.3431 14.3467 18.5178 13.9424C18.6789 13.569 18.9378 13.3221 19.3481 13.2363C19.842 13.1332 20.3298 13.0052 20.8236 12.9036C21.0126 12.8652 21.0743 12.7756 21.0615 12.5912C21.0479 12.3932 21.0585 12.1914 21.0585 11.9912Z"/>
</mask>
<path d="M21.9987 11.937C21.9987 12.1719 22.001 12.4075 21.9987 12.6424C21.9927 13.2401 21.6818 13.6308 21.0976 13.7685C20.6068 13.8845 20.1137 13.9906 19.6244 14.1148C19.5476 14.1344 19.4595 14.2119 19.4264 14.285C19.2435 14.687 19.0643 15.0912 18.9122 15.5053C18.8754 15.6054 18.9092 15.771 18.9732 15.8613C19.2503 16.249 19.5506 16.6202 19.842 16.9981C20.1754 17.4294 20.183 18.0061 19.8164 18.4081C19.4302 18.8319 19.0222 19.2369 18.6006 19.6253C18.2423 19.9558 17.7251 19.9822 17.2877 19.7262C16.8586 19.4748 16.4333 19.2158 16.0125 18.9516C15.8604 18.856 15.7264 18.859 15.566 18.9328C15.2092 19.0969 14.8479 19.2519 14.4813 19.395C14.3299 19.4537 14.2471 19.5342 14.2133 19.6969C14.1192 20.15 14.0108 20.6002 13.9061 21.0511C13.7653 21.6564 13.3415 21.9921 12.7167 21.9944C12.2605 21.9959 11.8035 21.9974 11.3473 21.9936C10.7609 21.9891 10.3695 21.6767 10.2332 21.1046C10.1165 20.6138 10.0111 20.1207 9.88616 19.6321C9.86508 19.5501 9.78302 19.4552 9.70473 19.4198C9.30951 19.2391 8.91053 19.0637 8.50326 18.9139C8.40163 18.8763 8.23526 18.8989 8.14568 18.9614C7.77154 19.2218 7.41546 19.5079 7.05261 19.7842C6.62427 20.1101 6.03934 20.1094 5.64111 19.7428C5.22406 19.3596 4.82432 18.9553 4.43889 18.5405C4.09636 18.1717 4.07453 17.647 4.34855 17.1923C4.59773 16.7775 4.84766 16.3634 5.10587 15.9547C5.20449 15.7973 5.20524 15.6618 5.12318 15.4917C4.95606 15.1439 4.80475 14.7878 4.66774 14.4265C4.60676 14.2646 4.5232 14.1826 4.35232 14.1487C3.8645 14.0508 3.38045 13.9372 2.89489 13.8258C2.37546 13.7068 2.01186 13.2694 2.00508 12.7432C1.99831 12.2456 1.99831 11.7473 2.00508 11.2497C2.01261 10.7393 2.33029 10.3614 2.82865 10.2469C3.34055 10.1295 3.85321 10.0143 4.3621 9.88635C4.44115 9.86602 4.53675 9.79751 4.56988 9.726C4.74678 9.34358 4.90337 8.95212 5.07275 8.56669C5.14502 8.40182 5.13899 8.25578 5.03887 8.09844C4.79045 7.70849 4.55407 7.30951 4.31468 6.91353C3.97065 6.34442 4.03915 5.77981 4.50664 5.31157C4.79496 5.02325 5.08178 4.73342 5.37236 4.4466C5.78565 4.03934 6.41198 3.98137 6.89528 4.30658C7.28523 4.56856 7.67443 4.83204 8.05836 5.10305C8.20741 5.20844 8.33689 5.20166 8.49874 5.12563C8.85407 4.95851 9.21692 4.80494 9.58353 4.66341C9.7371 4.60469 9.81615 4.52264 9.84927 4.36003C9.95015 3.86619 10.0623 3.37386 10.176 2.88304C10.2942 2.36887 10.7391 2.00979 11.2683 2.00376C11.7524 1.99849 12.2364 1.99925 12.7205 2.00301C13.2564 2.00678 13.6344 2.31618 13.7556 2.83862C13.8722 3.34375 13.9844 3.84963 14.1139 4.351C14.1365 4.43908 14.2223 4.5407 14.3051 4.5791C14.6996 4.76127 15.0986 4.93593 15.5066 5.08573C15.6074 5.12262 15.7731 5.09401 15.8634 5.03153C16.2315 4.77483 16.5831 4.49403 16.9399 4.22152C17.3795 3.88577 17.9637 3.88577 18.368 4.25916C18.779 4.63857 19.1742 5.03755 19.5559 5.44632C19.9022 5.81821 19.9315 6.34442 19.6628 6.79384C19.4106 7.21465 19.1562 7.63396 18.8942 8.04876C18.7941 8.20835 18.8038 8.34461 18.8836 8.51248C19.0493 8.86103 19.1998 9.21786 19.3383 9.5777C19.397 9.73052 19.4731 9.81483 19.6395 9.84193C20.11 9.91872 20.5782 10.0083 21.0472 10.0956C21.6186 10.2018 21.9927 10.6489 21.9995 11.2324C22.001 11.4672 21.9987 11.7021 21.9987 11.937ZM21.0585 11.9912C21.0585 11.7842 21.0517 11.5764 21.0607 11.3694C21.0683 11.2113 21.0133 11.1337 20.8515 11.0999C20.3516 10.9937 19.8563 10.8642 19.3556 10.7603C18.9371 10.673 18.6759 10.4216 18.5133 10.0399C18.3454 9.6462 18.1768 9.25324 17.9916 8.86781C17.8049 8.47936 17.8147 8.11199 18.0405 7.74463C18.3123 7.30348 18.575 6.85632 18.8513 6.41819C18.9243 6.30226 18.9198 6.22773 18.8219 6.13288C18.5095 5.8295 18.2024 5.5201 17.8975 5.20994C17.7891 5.09928 17.6874 5.08197 17.5504 5.16854C17.1176 5.4403 16.6772 5.69927 16.2428 5.96952C15.8792 6.19536 15.5149 6.18256 15.1369 6.00716C14.756 5.83025 14.3736 5.65636 13.9852 5.49676C13.6012 5.33867 13.343 5.08724 13.2437 4.67244C13.1164 4.14172 12.9659 3.61702 12.8371 3.08704C12.7995 2.93122 12.7325 2.86949 12.5691 2.87325C12.1543 2.88228 11.7396 2.88454 11.3248 2.8725C11.1403 2.86723 11.0718 2.9395 11.0357 3.11264C10.9326 3.60648 10.8068 4.09429 10.7007 4.58738C10.6096 5.01271 10.3469 5.27318 9.95692 5.43503C9.57525 5.59387 9.19433 5.75798 8.82245 5.93866C8.42798 6.13137 8.05309 6.12385 7.6797 5.89499C7.24383 5.62775 6.80344 5.36728 6.37133 5.09477C6.25163 5.01873 6.17108 5.01346 6.06795 5.12036C5.76532 5.43353 5.45592 5.73992 5.14502 6.04555C5.03285 6.15546 5.02231 6.25634 5.11264 6.39034C5.39796 6.81416 5.67725 7.24251 5.95127 7.67462C6.19291 8.05553 6.19894 8.45151 6.00998 8.85952C5.83082 9.24646 5.65767 9.63717 5.4913 10.0309C5.3302 10.4133 5.0735 10.67 4.65494 10.7581C4.16186 10.8627 3.67329 10.99 3.17945 11.0908C2.99125 11.1292 2.93329 11.2158 2.93931 11.401C2.95135 11.7804 2.95135 12.1613 2.93931 12.5415C2.93404 12.7191 2.98975 12.7997 3.16966 12.8366C3.67705 12.942 4.17917 13.0714 4.68505 13.1821C5.06145 13.2649 5.30913 13.4938 5.4627 13.834C5.6524 14.2556 5.83835 14.6787 6.02278 15.1025C6.19668 15.5022 6.19066 15.8892 5.95127 16.2693C5.678 16.7015 5.4228 17.1449 5.14953 17.577C5.075 17.6944 5.08479 17.7689 5.1804 17.8623C5.49206 18.1664 5.79995 18.4743 6.10484 18.786C6.21475 18.8981 6.31562 18.9109 6.45188 18.8259C6.89754 18.5481 7.34621 18.2756 7.79713 18.0076C8.13062 17.8088 8.47541 17.8051 8.82772 17.9677C9.22821 18.1521 9.62945 18.3343 10.0352 18.5059C10.4176 18.6678 10.6721 18.9252 10.7609 19.343C10.8656 19.8361 10.9905 20.3247 11.0952 20.8178C11.1313 20.9879 11.2013 21.0624 11.385 21.0572C11.7998 21.0451 12.2146 21.0481 12.6294 21.0564C12.789 21.0594 12.865 21.006 12.8989 20.8456C13.0058 20.3458 13.1345 19.8504 13.2384 19.3506C13.3257 18.932 13.5756 18.6708 13.9581 18.5082C14.3518 18.3411 14.7455 18.1732 15.1309 17.9872C15.5194 17.7998 15.8875 17.8096 16.2541 18.0347C16.6892 18.3027 17.1304 18.5616 17.5617 18.8349C17.6904 18.917 17.7725 18.9162 17.8809 18.8033C18.1722 18.4984 18.4719 18.201 18.7745 17.9082C18.8994 17.787 18.9183 17.6808 18.8212 17.5288C18.5509 17.1035 18.298 16.6661 18.0315 16.2385C17.8094 15.8824 17.8154 15.5233 17.9833 15.1514C18.1647 14.7502 18.3431 14.3467 18.5178 13.9424C18.6789 13.569 18.9378 13.3221 19.3481 13.2363C19.842 13.1332 20.3298 13.0052 20.8236 12.9036C21.0126 12.8652 21.0743 12.7756 21.0615 12.5912C21.0479 12.3932 21.0585 12.1914 21.0585 11.9912Z" fill="black"/>
<path d="M21.9987 11.937C21.9987 12.1719 22.001 12.4075 21.9987 12.6424C21.9927 13.2401 21.6818 13.6308 21.0976 13.7685C20.6068 13.8845 20.1137 13.9906 19.6244 14.1148C19.5476 14.1344 19.4595 14.2119 19.4264 14.285C19.2435 14.687 19.0643 15.0912 18.9122 15.5053C18.8754 15.6054 18.9092 15.771 18.9732 15.8613C19.2503 16.249 19.5506 16.6202 19.842 16.9981C20.1754 17.4294 20.183 18.0061 19.8164 18.4081C19.4302 18.8319 19.0222 19.2369 18.6006 19.6253C18.2423 19.9558 17.7251 19.9822 17.2877 19.7262C16.8586 19.4748 16.4333 19.2158 16.0125 18.9516C15.8604 18.856 15.7264 18.859 15.566 18.9328C15.2092 19.0969 14.8479 19.2519 14.4813 19.395C14.3299 19.4537 14.2471 19.5342 14.2133 19.6969C14.1192 20.15 14.0108 20.6002 13.9061 21.0511C13.7653 21.6564 13.3415 21.9921 12.7167 21.9944C12.2605 21.9959 11.8035 21.9974 11.3473 21.9936C10.7609 21.9891 10.3695 21.6767 10.2332 21.1046C10.1165 20.6138 10.0111 20.1207 9.88616 19.6321C9.86508 19.5501 9.78302 19.4552 9.70473 19.4198C9.30951 19.2391 8.91053 19.0637 8.50326 18.9139C8.40163 18.8763 8.23526 18.8989 8.14568 18.9614C7.77154 19.2218 7.41546 19.5079 7.05261 19.7842C6.62427 20.1101 6.03934 20.1094 5.64111 19.7428C5.22406 19.3596 4.82432 18.9553 4.43889 18.5405C4.09636 18.1717 4.07453 17.647 4.34855 17.1923C4.59773 16.7775 4.84766 16.3634 5.10587 15.9547C5.20449 15.7973 5.20524 15.6618 5.12318 15.4917C4.95606 15.1439 4.80475 14.7878 4.66774 14.4265C4.60676 14.2646 4.5232 14.1826 4.35232 14.1487C3.8645 14.0508 3.38045 13.9372 2.89489 13.8258C2.37546 13.7068 2.01186 13.2694 2.00508 12.7432C1.99831 12.2456 1.99831 11.7473 2.00508 11.2497C2.01261 10.7393 2.33029 10.3614 2.82865 10.2469C3.34055 10.1295 3.85321 10.0143 4.3621 9.88635C4.44115 9.86602 4.53675 9.79751 4.56988 9.726C4.74678 9.34358 4.90337 8.95212 5.07275 8.56669C5.14502 8.40182 5.13899 8.25578 5.03887 8.09844C4.79045 7.70849 4.55407 7.30951 4.31468 6.91353C3.97065 6.34442 4.03915 5.77981 4.50664 5.31157C4.79496 5.02325 5.08178 4.73342 5.37236 4.4466C5.78565 4.03934 6.41198 3.98137 6.89528 4.30658C7.28523 4.56856 7.67443 4.83204 8.05836 5.10305C8.20741 5.20844 8.33689 5.20166 8.49874 5.12563C8.85407 4.95851 9.21692 4.80494 9.58353 4.66341C9.7371 4.60469 9.81615 4.52264 9.84927 4.36003C9.95015 3.86619 10.0623 3.37386 10.176 2.88304C10.2942 2.36887 10.7391 2.00979 11.2683 2.00376C11.7524 1.99849 12.2364 1.99925 12.7205 2.00301C13.2564 2.00678 13.6344 2.31618 13.7556 2.83862C13.8722 3.34375 13.9844 3.84963 14.1139 4.351C14.1365 4.43908 14.2223 4.5407 14.3051 4.5791C14.6996 4.76127 15.0986 4.93593 15.5066 5.08573C15.6074 5.12262 15.7731 5.09401 15.8634 5.03153C16.2315 4.77483 16.5831 4.49403 16.9399 4.22152C17.3795 3.88577 17.9637 3.88577 18.368 4.25916C18.779 4.63857 19.1742 5.03755 19.5559 5.44632C19.9022 5.81821 19.9315 6.34442 19.6628 6.79384C19.4106 7.21465 19.1562 7.63396 18.8942 8.04876C18.7941 8.20835 18.8038 8.34461 18.8836 8.51248C19.0493 8.86103 19.1998 9.21786 19.3383 9.5777C19.397 9.73052 19.4731 9.81483 19.6395 9.84193C20.11 9.91872 20.5782 10.0083 21.0472 10.0956C21.6186 10.2018 21.9927 10.6489 21.9995 11.2324C22.001 11.4672 21.9987 11.7021 21.9987 11.937ZM21.0585 11.9912C21.0585 11.7842 21.0517 11.5764 21.0607 11.3694C21.0683 11.2113 21.0133 11.1337 20.8515 11.0999C20.3516 10.9937 19.8563 10.8642 19.3556 10.7603C18.9371 10.673 18.6759 10.4216 18.5133 10.0399C18.3454 9.6462 18.1768 9.25324 17.9916 8.86781C17.8049 8.47936 17.8147 8.11199 18.0405 7.74463C18.3123 7.30348 18.575 6.85632 18.8513 6.41819C18.9243 6.30226 18.9198 6.22773 18.8219 6.13288C18.5095 5.8295 18.2024 5.5201 17.8975 5.20994C17.7891 5.09928 17.6874 5.08197 17.5504 5.16854C17.1176 5.4403 16.6772 5.69927 16.2428 5.96952C15.8792 6.19536 15.5149 6.18256 15.1369 6.00716C14.756 5.83025 14.3736 5.65636 13.9852 5.49676C13.6012 5.33867 13.343 5.08724 13.2437 4.67244C13.1164 4.14172 12.9659 3.61702 12.8371 3.08704C12.7995 2.93122 12.7325 2.86949 12.5691 2.87325C12.1543 2.88228 11.7396 2.88454 11.3248 2.8725C11.1403 2.86723 11.0718 2.9395 11.0357 3.11264C10.9326 3.60648 10.8068 4.09429 10.7007 4.58738C10.6096 5.01271 10.3469 5.27318 9.95692 5.43503C9.57525 5.59387 9.19433 5.75798 8.82245 5.93866C8.42798 6.13137 8.05309 6.12385 7.6797 5.89499C7.24383 5.62775 6.80344 5.36728 6.37133 5.09477C6.25163 5.01873 6.17108 5.01346 6.06795 5.12036C5.76532 5.43353 5.45592 5.73992 5.14502 6.04555C5.03285 6.15546 5.02231 6.25634 5.11264 6.39034C5.39796 6.81416 5.67725 7.24251 5.95127 7.67462C6.19291 8.05553 6.19894 8.45151 6.00998 8.85952C5.83082 9.24646 5.65767 9.63717 5.4913 10.0309C5.3302 10.4133 5.0735 10.67 4.65494 10.7581C4.16186 10.8627 3.67329 10.99 3.17945 11.0908C2.99125 11.1292 2.93329 11.2158 2.93931 11.401C2.95135 11.7804 2.95135 12.1613 2.93931 12.5415C2.93404 12.7191 2.98975 12.7997 3.16966 12.8366C3.67705 12.942 4.17917 13.0714 4.68505 13.1821C5.06145 13.2649 5.30913 13.4938 5.4627 13.834C5.6524 14.2556 5.83835 14.6787 6.02278 15.1025C6.19668 15.5022 6.19066 15.8892 5.95127 16.2693C5.678 16.7015 5.4228 17.1449 5.14953 17.577C5.075 17.6944 5.08479 17.7689 5.1804 17.8623C5.49206 18.1664 5.79995 18.4743 6.10484 18.786C6.21475 18.8981 6.31562 18.9109 6.45188 18.8259C6.89754 18.5481 7.34621 18.2756 7.79713 18.0076C8.13062 17.8088 8.47541 17.8051 8.82772 17.9677C9.22821 18.1521 9.62945 18.3343 10.0352 18.5059C10.4176 18.6678 10.6721 18.9252 10.7609 19.343C10.8656 19.8361 10.9905 20.3247 11.0952 20.8178C11.1313 20.9879 11.2013 21.0624 11.385 21.0572C11.7998 21.0451 12.2146 21.0481 12.6294 21.0564C12.789 21.0594 12.865 21.006 12.8989 20.8456C13.0058 20.3458 13.1345 19.8504 13.2384 19.3506C13.3257 18.932 13.5756 18.6708 13.9581 18.5082C14.3518 18.3411 14.7455 18.1732 15.1309 17.9872C15.5194 17.7998 15.8875 17.8096 16.2541 18.0347C16.6892 18.3027 17.1304 18.5616 17.5617 18.8349C17.6904 18.917 17.7725 18.9162 17.8809 18.8033C18.1722 18.4984 18.4719 18.201 18.7745 17.9082C18.8994 17.787 18.9183 17.6808 18.8212 17.5288C18.5509 17.1035 18.298 16.6661 18.0315 16.2385C17.8094 15.8824 17.8154 15.5233 17.9833 15.1514C18.1647 14.7502 18.3431 14.3467 18.5178 13.9424C18.6789 13.569 18.9378 13.3221 19.3481 13.2363C19.842 13.1332 20.3298 13.0052 20.8236 12.9036C21.0126 12.8652 21.0743 12.7756 21.0615 12.5912C21.0479 12.3932 21.0585 12.1914 21.0585 11.9912Z" stroke="black" stroke-width="0.2" mask="url(#path-1-outside-1_96_27012)"/>
<path d="M12.002 6.7002C14.902 6.70185 17.2947 9.09286 17.2979 11.9922C17.3009 14.891 14.914 17.2846 12.0107 17.293C9.10671 17.3013 6.70045 14.8974 6.7041 11.9912C6.7079 9.09169 9.10243 6.7002 12.002 6.7002ZM12.0264 7.7373C9.67896 7.72466 7.74705 9.63763 7.74023 11.9834C7.73279 14.3219 9.63982 16.2461 11.9775 16.2588C14.3241 16.2712 16.2553 14.3575 16.2627 12.0117C16.27 9.67259 14.3647 7.75001 12.0264 7.7373Z" fill="black" stroke="black" stroke-width="0.1"/>
<path d="M9.97656 10.813C10.1324 9.84075 11.1821 9.31321 12.0762 9.82568C12.6157 10.1346 13.1504 10.4542 13.6758 10.7866C14.6164 11.3814 14.6203 12.6695 13.6816 13.2681C13.4309 13.4282 13.1745 13.5799 12.9189 13.731C12.6632 13.8821 12.4075 14.0326 12.1572 14.1909C11.6702 14.4984 11.1419 14.4929 10.7246 14.2661C10.3078 14.0396 10.0049 13.5939 9.96387 13.0278C9.94013 12.6992 9.95719 12.3642 9.95898 12.0386H9.95605V11.9888C9.95605 11.6661 9.94819 11.3386 9.95801 11.0132L9.97656 10.813ZM11.6377 10.8774C11.4576 10.7721 11.2985 10.7689 11.1865 10.8315C11.0744 10.8946 10.9942 11.033 10.9902 11.2417C10.9846 11.5212 10.9879 11.8006 10.9883 12.0815H10.9902V12.1313C10.9902 12.4435 10.9837 12.7529 10.9912 13.063C10.9959 13.2556 11.0806 13.3925 11.1973 13.4595C11.314 13.5263 11.4727 13.5284 11.6367 13.4321C12.1369 13.1388 12.6335 12.8407 13.127 12.5376C13.2982 12.4324 13.3775 12.2894 13.3779 12.1538C13.3782 12.0184 13.2995 11.877 13.1289 11.772C12.6357 11.4682 12.1388 11.171 11.6387 10.8784L11.6377 10.8774Z" fill="black" stroke="black" stroke-width="0.1"/>
</svg>
