<svg width="14" height="14" viewBox="0 0 14 14" fill="none" xmlns="http://www.w3.org/2000/svg">
<path d="M7.58496 9.47949C7.82633 9.47967 8.02229 9.67563 8.02246 9.91699C8.02246 10.1585 7.82644 10.3543 7.58496 10.3545H4.66797C4.42634 10.3545 4.23047 10.1586 4.23047 9.91699C4.23064 9.67552 4.42645 9.47949 4.66797 9.47949H7.58496ZM9.33496 9.47949C9.57633 9.47967 9.77228 9.67563 9.77246 9.91699C9.77246 10.1585 9.57644 10.3543 9.33496 10.3545H9.3291C9.08761 10.3543 8.8916 10.1585 8.8916 9.91699C8.89178 9.67562 9.08772 9.47965 9.3291 9.47949H9.33496ZM4.67285 7.14648C4.91448 7.14648 5.11035 7.34236 5.11035 7.58398C5.11035 7.82561 4.91448 8.02148 4.67285 8.02148H4.66797C4.42634 8.02148 4.23047 7.82561 4.23047 7.58398C4.23047 7.34236 4.42634 7.14648 4.66797 7.14648H4.67285ZM9.33496 7.14648C9.57644 7.14666 9.77246 7.34247 9.77246 7.58398C9.77246 7.8255 9.57644 8.02131 9.33496 8.02148H6.41797C6.17634 8.02148 5.98047 7.82561 5.98047 7.58398C5.98047 7.34236 6.17634 7.14648 6.41797 7.14648H9.33496Z" fill="#94A3B8"/>
<path d="M3.0625 2.33398V1.16699C3.0625 0.925368 3.25838 0.729492 3.5 0.729492C3.74162 0.729492 3.9375 0.925368 3.9375 1.16699V2.33398C3.93732 2.57546 3.74152 2.77148 3.5 2.77148C3.25848 2.77148 3.06268 2.57546 3.0625 2.33398ZM10.0625 2.33398V1.16699C10.0625 0.925368 10.2584 0.729492 10.5 0.729492C10.7416 0.729492 10.9375 0.925368 10.9375 1.16699V2.33398C10.9373 2.57546 10.7415 2.77148 10.5 2.77148C10.2585 2.77148 10.0627 2.57546 10.0625 2.33398Z" fill="#94A3B8"/>
<path d="M12.1045 7.1416C12.1045 5.85941 12.1038 4.93809 12.0166 4.2373C11.9306 3.5463 11.7676 3.13587 11.4912 2.83691C11.2191 2.54275 10.8524 2.37196 10.2285 2.28125C9.58818 2.18818 8.74359 2.1875 7.55469 2.1875H6.44629C5.25773 2.1875 4.41369 2.18824 3.77344 2.28125C3.14941 2.37195 2.78288 2.54271 2.51074 2.83691C2.23418 3.13591 2.07039 3.54602 1.98438 4.2373C1.89722 4.93809 1.89648 5.85941 1.89648 7.1416V7.44141C1.89648 8.72375 1.89722 9.64486 1.98438 10.3457C2.07038 11.0372 2.23413 11.448 2.51074 11.7471C2.78285 12.0411 3.14964 12.2111 3.77344 12.3018C4.4137 12.3948 5.2577 12.3955 6.44629 12.3955H7.55469C8.74359 12.3955 9.58818 12.3948 10.2285 12.3018C10.8524 12.211 11.2191 12.0412 11.4912 11.7471C11.7678 11.448 11.9306 11.0372 12.0166 10.3457C12.1038 9.64486 12.1045 8.72375 12.1045 7.44141V7.1416ZM12.9795 7.44141C12.9795 8.70082 12.9802 9.68666 12.8848 10.4541C12.7881 11.2306 12.5865 11.8504 12.1328 12.3408C11.6746 12.8361 11.0884 13.0613 10.3545 13.168C9.63666 13.2723 8.71691 13.2705 7.55469 13.2705H6.44629C5.28431 13.2705 4.36521 13.2723 3.64746 13.168C2.91332 13.0613 2.32643 12.8362 1.86816 12.3408C1.41448 11.8503 1.21283 11.2306 1.11621 10.4541C1.02077 9.68666 1.02148 8.70082 1.02148 7.44141V7.1416C1.02148 5.88241 1.0208 4.89725 1.11621 4.12988C1.21281 3.35312 1.41438 2.73276 1.86816 2.24219C2.32641 1.74688 2.9134 1.52271 3.64746 1.41602C4.36522 1.31171 5.28426 1.3125 6.44629 1.3125H7.55469C8.71691 1.3125 9.63666 1.31168 10.3545 1.41602C11.0883 1.52272 11.6747 1.74709 12.1328 2.24219C12.5866 2.73276 12.7882 3.35312 12.8848 4.12988C12.9802 4.89725 12.9795 5.88239 12.9795 7.1416V7.44141Z" fill="#94A3B8"/>
<path d="M12.25 4.22949C12.4916 4.22949 12.6875 4.42537 12.6875 4.66699C12.6875 4.90862 12.4916 5.10449 12.25 5.10449H1.75C1.50838 5.10449 1.3125 4.90862 1.3125 4.66699C1.3125 4.42537 1.50838 4.22949 1.75 4.22949H12.25Z" fill="#94A3B8"/>
</svg>
