<svg width="24" height="24" viewBox="0 0 24 24" fill="none" xmlns="http://www.w3.org/2000/svg">
<path d="M21.4657 17.8179C20.7522 17.7373 20.1833 17.1636 20.1204 16.4622C20.0383 15.5472 20.636 14.8374 21.5631 14.7505C21.974 14.7118 22.1158 14.5605 22.1174 14.1507C22.119 13.7146 22.1226 13.2781 22.1158 12.8421C22.1106 12.529 21.9467 12.3427 21.6363 12.3333C21.1396 12.3176 20.6408 12.3097 20.1451 12.3406C19.9974 12.35 19.808 12.4668 19.7253 12.5919C19.5305 12.8866 19.7645 13.2524 20.1409 13.2666C20.478 13.2791 20.8161 13.2692 21.1632 13.2692C21.1632 13.477 21.1632 13.6487 21.1632 13.8251C19.9257 14.2004 19.1631 14.985 19.1756 16.3167C19.1877 17.6206 19.9461 18.3885 21.1647 18.7497C21.1647 18.9266 21.1647 19.0998 21.1647 19.2857C17.9591 19.2857 14.7619 19.2857 11.5653 19.2857C11.5653 18.4408 11.5653 17.6159 11.5653 16.7658C11.6851 16.7658 11.7877 16.7658 11.8908 16.7658C13.837 16.7658 15.7827 16.7663 17.7288 16.7653C18.0931 16.7653 18.2957 16.5967 18.3015 16.301C18.3072 15.9953 18.113 15.8226 17.7492 15.822C14.0668 15.821 10.3844 15.821 6.70194 15.822C6.36484 15.822 6.15651 16.0026 6.15337 16.2837C6.15023 16.5732 6.36746 16.76 6.71555 16.7653C6.8417 16.7674 6.96732 16.7658 7.11232 16.7658C7.11232 16.9244 7.11232 18.9664 7.11232 19.0794C7.11284 19.6877 7.23742 19.9112 7.57871 19.9159C7.92471 19.9206 8.05766 19.6924 8.05818 19.092C8.05818 18.9721 8.05818 16.9223 8.05818 16.7888C8.92082 16.7888 9.75205 16.7888 10.5932 16.7888C10.5932 17.9666 10.5932 19.125 10.5932 20.3367C10.287 20.0352 10.0174 19.7672 9.74472 19.5019C9.47724 19.2417 9.2375 19.2375 8.96898 19.4914C8.79781 19.6531 8.6345 19.8232 8.46595 19.9881C8.34765 20.1038 8.22621 20.2158 8.07703 20.3577C8.06708 20.2546 8.05975 20.2116 8.05975 20.1682C8.05714 19.8018 8.06603 19.4349 8.05085 19.069C8.03986 18.8015 7.84619 18.6298 7.59336 18.6261C7.34002 18.6225 7.15472 18.7889 7.11912 19.0538C7.10918 19.1292 7.10237 19.2051 7.09295 19.2888C6.61609 19.2888 6.15337 19.3171 5.69535 19.2841C3.61675 19.1349 2.3118 16.8187 3.26447 14.9662C3.85021 13.8267 4.81282 13.2744 6.08637 13.2734C8.20684 13.2718 10.3268 13.287 12.4473 13.287C14.4191 13.287 18.2559 13.277 20.2278 13.2713C20.6816 13.2702 20.9009 13.1148 20.8972 12.796C20.8931 12.4783 20.6748 12.327 20.2162 12.3265C18.9249 12.3259 15.7685 12.3265 14.4772 12.3265C14.3845 12.3265 14.2914 12.3265 14.1783 12.3265C14.2024 12.0988 14.2149 11.9077 14.2453 11.7198C14.2846 11.4748 14.4782 11.3989 14.6719 11.5481C14.8928 11.7182 15.1048 11.9014 15.3304 12.0653C15.6994 12.3343 16.0904 12.3045 16.4197 11.9873C16.6709 11.7454 16.9185 11.4994 17.1609 11.2482C17.4797 10.9184 17.5032 10.5269 17.2279 10.1605C17.0604 9.93746 16.8798 9.7239 16.7102 9.50248C16.56 9.30619 16.6437 9.11199 16.8897 9.07954C17.175 9.04185 17.4619 9.01411 17.7456 8.96857C18.1727 8.9 18.4271 8.61158 18.4381 8.18078C18.447 7.81437 18.447 7.44796 18.4381 7.08155C18.4276 6.64604 18.1512 6.34506 17.7199 6.28801C17.443 6.25189 17.1656 6.22467 16.8887 6.1896C16.6474 6.15924 16.561 5.9619 16.7081 5.7698C16.8777 5.54838 17.0599 5.33586 17.2258 5.11182C17.4975 4.74384 17.4723 4.34812 17.1583 4.02149C16.9164 3.77024 16.6689 3.52369 16.4181 3.28134C16.0795 2.95314 15.6884 2.93168 15.31 3.21852C15.0949 3.38184 14.8881 3.55667 14.674 3.72155C14.4798 3.87126 14.2825 3.7985 14.2463 3.55772C14.2081 3.30803 14.1882 3.05521 14.161 2.80396C14.1061 2.28889 13.7951 2.00361 13.2795 2.00099C12.9744 1.99942 12.6687 1.99994 12.3635 2.00099C11.7966 2.00256 11.5087 2.25643 11.4417 2.81599C11.4156 3.03218 11.4082 3.25255 11.3632 3.46454C11.3397 3.57499 11.2753 3.7158 11.1873 3.76186C11.1172 3.7985 10.9675 3.73464 10.8801 3.67549C10.6785 3.53887 10.4959 3.37451 10.3011 3.2269C9.90908 2.92854 9.52069 2.95052 9.17312 3.29076C8.93652 3.52265 8.70254 3.75767 8.47013 3.99427C8.11995 4.35126 8.0943 4.74332 8.39842 5.14428C8.56174 5.35994 8.73709 5.56618 8.90093 5.78079C9.04017 5.96295 8.95694 6.15819 8.72662 6.1896C8.45024 6.22676 8.17177 6.25189 7.89487 6.28696C7.46041 6.3414 7.17356 6.6361 7.15786 7.06742C7.14425 7.4422 7.14425 7.81804 7.15786 8.19282C7.17356 8.61786 7.43947 8.90418 7.86608 8.97066C8.15031 9.01515 8.43716 9.0408 8.72243 9.07901C8.95537 9.11042 9.04121 9.30357 8.90093 9.48887C8.73762 9.70401 8.56226 9.91024 8.3979 10.1249C8.0875 10.53 8.11053 10.9132 8.46438 11.2728C8.6905 11.5031 8.91977 11.7303 9.14957 11.9569C9.51441 12.316 9.90961 12.3422 10.32 12.0307C10.5283 11.8726 10.7272 11.702 10.935 11.5429C11.1203 11.4015 11.3192 11.4764 11.3527 11.7025C11.3815 11.8983 11.3946 12.0972 11.4177 12.3259C11.2899 12.3259 11.1784 12.3254 11.0669 12.3259C9.22599 12.3369 7.38085 12.2705 5.54565 12.3783C2.94465 12.5311 1.2534 15.4514 2.32855 17.83C3.02107 19.3616 4.23285 20.1672 5.9152 20.2451C6.30412 20.2629 6.69461 20.2478 7.11546 20.2478C7.11546 20.6848 7.11598 21.0837 7.11546 21.4826C7.11493 21.7035 7.19816 21.8762 7.40963 21.9615C7.61954 22.0463 7.80012 21.9861 7.95716 21.8286C8.30263 21.4831 8.64968 21.1397 8.99724 20.7963C9.1124 20.6827 9.2307 20.5723 9.33225 20.4755C9.78503 20.9172 10.2195 21.3334 10.644 21.7595C10.823 21.939 11.0088 22.0667 11.2685 21.9594C11.5202 21.8553 11.5569 21.6386 11.5517 21.3962C11.5438 21.024 11.5496 20.6513 11.5496 20.2514C11.6862 20.2514 11.7893 20.2514 11.8924 20.2514C13.0267 20.2514 14.161 20.2514 15.2959 20.2514C17.364 20.2514 19.4321 20.2525 21.5002 20.2509C21.9562 20.2504 22.1179 20.0876 22.1195 19.64C22.1205 19.2736 22.12 18.9072 22.1195 18.5408C22.1174 17.9786 22.03 17.8818 21.4657 17.8179ZM11.303 10.5044C11.057 10.3724 10.8419 10.3981 10.6278 10.5766C10.3545 10.8043 10.0714 11.0199 9.78398 11.2471C9.58193 11.0404 9.39506 10.8488 9.19406 10.6431C9.41286 10.3667 9.62904 10.083 9.85674 9.8087C10.0337 9.59618 10.064 9.38314 9.93316 9.13398C9.84051 8.95758 9.76828 8.76861 9.70442 8.57965C9.61857 8.32525 9.44793 8.20067 9.18464 8.1766C8.83079 8.14362 8.47799 8.09965 8.09744 8.05725C8.09744 7.80495 8.08488 7.57045 8.10686 7.33908C8.1121 7.28465 8.22726 7.21032 8.30054 7.19828C8.60152 7.14855 8.90459 7.10981 9.20871 7.08574C9.46991 7.0648 9.61962 6.93237 9.70442 6.69263C9.77351 6.49581 9.85203 6.30109 9.94468 6.11422C10.0598 5.88286 10.0342 5.68238 9.87297 5.48452C9.64213 5.20186 9.41966 4.91292 9.19511 4.62868C9.39873 4.42925 9.59031 4.24238 9.80126 4.03667C10.0577 4.24029 10.3289 4.44234 10.5843 4.66323C10.8256 4.87156 11.0628 4.91606 11.347 4.74698C11.4946 4.65904 11.6631 4.5978 11.8301 4.55122C12.1049 4.47427 12.2311 4.29106 12.2604 4.02358C12.2997 3.67078 12.3363 3.31746 12.375 2.95733C12.6645 2.95733 12.9236 2.95733 13.2162 2.95733C13.2518 3.24941 13.3036 3.53887 13.3188 3.83043C13.3403 4.22982 13.4701 4.5219 13.9087 4.59623C14.0092 4.61298 14.1113 4.66062 14.1961 4.71819C14.5306 4.94432 14.8101 4.86057 15.0886 4.60618C15.3126 4.40151 15.5623 4.22459 15.8104 4.02725C16.003 4.23191 16.1868 4.42664 16.392 4.64386C16.1889 4.90088 15.9753 5.18458 15.7465 5.45573C15.5597 5.67715 15.533 5.8949 15.6717 6.15243C15.7659 6.32726 15.834 6.51832 15.8989 6.70729C15.9753 6.9287 16.1156 7.05538 16.3522 7.07998C16.6641 7.11243 16.9751 7.15954 17.2876 7.18624C17.4388 7.1988 17.5058 7.2501 17.4975 7.40975C17.4865 7.61703 17.4949 7.82484 17.4949 8.0583C17.1274 8.09965 16.784 8.14624 16.4391 8.1745C16.1543 8.19806 15.9701 8.32054 15.8863 8.60425C15.8324 8.78693 15.7544 8.9649 15.6659 9.13398C15.5419 9.37005 15.5523 9.57681 15.7261 9.78567C15.9591 10.0662 16.1794 10.3573 16.4129 10.6541C16.2009 10.8477 16.0025 11.0283 15.7884 11.2241C15.5319 11.0215 15.2477 10.8074 14.9755 10.5792C14.7625 10.4012 14.5479 10.3698 14.3008 10.5012C14.1631 10.5745 14.0192 10.6493 13.8689 10.6844C13.5067 10.7687 13.3507 10.9922 13.3288 11.3523C13.3099 11.6648 13.2602 11.9752 13.2225 12.3008C12.9445 12.3008 12.6776 12.3008 12.3735 12.3008C12.3405 11.9993 12.2918 11.6926 12.2766 11.3837C12.2583 11.0163 12.1117 10.7755 11.7359 10.686C11.5852 10.6509 11.4407 10.5782 11.303 10.5044Z" fill="black"/>
<path d="M12.8008 5.35303C14.0811 5.35408 15.0919 6.36275 15.0919 7.63996C15.0919 8.90041 14.0523 9.94207 12.7955 9.9405C11.5398 9.93945 10.5039 8.89727 10.5039 7.63472C10.5034 6.3638 11.522 5.35198 12.8008 5.35303ZM12.76 8.99725C13.5106 9.02185 14.1481 8.42827 14.1712 7.68183C14.1937 6.94325 13.6037 6.30099 12.8777 6.27324C12.0879 6.24341 11.4534 6.82548 11.4288 7.60332C11.4048 8.34975 11.9989 8.9716 12.76 8.99725Z" fill="black"/>
</svg>
