<svg width="24" height="25" viewBox="0 0 24 25" fill="none" xmlns="http://www.w3.org/2000/svg">
<path d="M5.25 11.9802C5.27685 8.06055 8.15914 5.22024 12.1105 5.26567C15.8333 5.30835 18.7149 7.94765 18.7631 12.1014C18.8065 15.8332 15.7404 18.8284 12.0355 18.7761C7.62771 18.7141 5.25688 15.4738 5.25 11.9802ZM6.60063 11.9658C6.61233 15.1303 8.90743 17.4199 12.0768 17.402C15.0396 17.3855 17.3678 15.3066 17.4173 11.9348C17.4614 8.94375 14.9949 6.56467 11.937 6.56329C8.96319 6.5626 6.58892 8.97335 6.60063 11.9658Z" fill="black"/>
<path d="M12.6737 3.25576C12.6737 3.45195 12.6834 3.64883 12.6723 3.84433C12.6496 4.22639 12.3667 4.49417 11.9991 4.49348C11.6322 4.4928 11.3424 4.22363 11.3293 3.84227C11.3155 3.44093 11.3135 3.03822 11.3307 2.63758C11.3465 2.26309 11.6515 1.99324 12.0142 2.00013C12.3612 2.00632 12.6476 2.27755 12.6703 2.63964C12.6847 2.8441 12.6737 3.04993 12.6737 3.25576Z" fill="black"/>
<path d="M6.88764 17.8718C6.86216 17.931 6.83463 18.0921 6.7417 18.1947C6.46014 18.5059 6.1662 18.8094 5.85229 19.0882C5.54871 19.3574 5.17698 19.3326 4.92297 19.0669C4.66757 18.7991 4.67239 18.3985 4.94912 18.108C5.21347 17.8305 5.48538 17.5593 5.76349 17.2957C5.97552 17.0947 6.23504 17.065 6.49388 17.1821C6.74307 17.2943 6.87869 17.5015 6.88764 17.8718Z" fill="black"/>
<path d="M12.6759 20.778C12.6759 20.9646 12.6828 21.1518 12.6746 21.3384C12.6567 21.7342 12.3682 22.0151 11.9937 22.0109C11.6316 22.0075 11.3425 21.7314 11.3301 21.3508C11.317 20.9591 11.317 20.566 11.3301 20.1736C11.3425 19.7909 11.6289 19.5196 11.9944 19.5169C12.3717 19.5134 12.6573 19.7922 12.6746 20.1887C12.6828 20.3856 12.6759 20.5818 12.6759 20.778Z" fill="black"/>
<path d="M5.48648 4.72803C5.57253 4.77415 5.75426 4.83404 5.88712 4.94969C6.1611 5.18994 6.41374 5.45497 6.66569 5.71931C6.95344 6.02152 6.95344 6.42629 6.67808 6.69752C6.40961 6.96186 6.01654 6.96048 5.72328 6.67962C5.44586 6.41459 5.17395 6.14336 4.91236 5.86319C4.71548 5.65323 4.6783 5.3999 4.79327 5.13418C4.9041 4.87603 5.11268 4.75487 5.48648 4.72803Z" fill="black"/>
<path d="M17.0742 6.18035C17.1637 6.02339 17.2312 5.84579 17.3482 5.71293C17.5836 5.44721 17.8425 5.20283 18.0992 4.95707C18.4014 4.66864 18.809 4.66244 19.0768 4.93367C19.3459 5.2049 19.3363 5.61724 19.0437 5.9105C18.7532 6.201 18.4627 6.49288 18.1543 6.7641C17.9505 6.94377 17.7013 6.93414 17.4707 6.80678C17.2429 6.67943 17.1238 6.47429 17.0742 6.18035Z" fill="black"/>
<path d="M19.2693 18.527C19.25 18.8774 19.133 19.0859 18.879 19.2064C18.625 19.3269 18.3744 19.3035 18.1727 19.1183C17.8567 18.8278 17.5511 18.5235 17.2654 18.2034C17.0355 17.9466 17.0761 17.5543 17.3205 17.3147C17.5573 17.0827 17.9414 17.04 18.1885 17.2603C18.5155 17.5522 18.8246 17.8668 19.1199 18.1903C19.2129 18.2922 19.239 18.4547 19.2693 18.527Z" fill="black"/>
<path d="M3.20885 12.6794C3.02229 12.6794 2.83505 12.689 2.64918 12.6773C2.27883 12.6539 1.99659 12.3545 2.00003 12.0006C2.00278 11.6461 2.28709 11.3473 2.6602 11.3349C3.05121 11.3219 3.44428 11.3205 3.83528 11.3356C4.20977 11.3501 4.48306 11.6495 4.48031 12.0116C4.47824 12.373 4.20289 12.6587 3.82496 12.6787C3.61982 12.689 3.41399 12.6801 3.20885 12.6794Z" fill="black"/>
<path d="M20.7416 12.6803C20.555 12.6803 20.3684 12.6878 20.1819 12.6789C19.7923 12.6596 19.5128 12.3643 19.5197 11.9905C19.5265 11.6305 19.8046 11.3455 20.1853 11.3345C20.5674 11.3228 20.9501 11.3228 21.3322 11.3345C21.7074 11.3462 21.9924 11.6394 21.9992 11.9933C22.0061 12.3588 21.7163 12.6603 21.3288 12.6789C21.1339 12.6878 20.9377 12.6803 20.7416 12.6803Z" fill="black"/>
<path d="M12.0188 16.346C9.78426 16.3522 7.91596 14.6677 7.69017 12.4428C7.46644 10.2386 8.95681 8.19541 11.1177 7.74314C11.4254 7.67843 11.7159 7.68118 11.9389 7.95034C12.1516 8.20711 12.1 8.47559 12.0085 8.76884C11.7076 9.73052 11.8694 10.611 12.5853 11.3359C13.2882 12.0483 14.1473 12.2487 15.1131 11.9747C15.1489 11.9644 15.184 11.952 15.2198 11.9396C15.9997 11.6745 16.4252 12.0504 16.2648 12.862C15.8669 14.8756 14.0826 16.3405 12.0188 16.346ZM14.5775 13.4919C12.0704 13.2806 10.6984 11.9403 10.4665 9.44415C9.40013 9.99005 8.85699 11.2512 9.08003 12.6479C9.26246 13.7913 10.2888 14.7517 11.5397 14.9499C12.8035 15.1509 14.0309 14.5658 14.5775 13.4919Z" fill="black"/>
<path d="M5.25 11.9802C5.27685 8.06055 8.15914 5.22024 12.1105 5.26567C15.8333 5.30835 18.7149 7.94765 18.7631 12.1014C18.8065 15.8332 15.7404 18.8284 12.0355 18.7761C7.62771 18.7141 5.25688 15.4738 5.25 11.9802ZM6.60063 11.9658C6.61233 15.1303 8.90743 17.4199 12.0768 17.402C15.0396 17.3855 17.3678 15.3066 17.4173 11.9348C17.4614 8.94375 14.9949 6.56467 11.937 6.56329C8.96319 6.5626 6.58892 8.97335 6.60063 11.9658Z" fill="black"/>
<path d="M12.6737 3.25576C12.6737 3.45195 12.6834 3.64883 12.6723 3.84433C12.6496 4.22639 12.3667 4.49417 11.9991 4.49348C11.6322 4.4928 11.3424 4.22363 11.3293 3.84227C11.3155 3.44093 11.3135 3.03822 11.3307 2.63758C11.3465 2.26309 11.6515 1.99324 12.0142 2.00013C12.3612 2.00632 12.6476 2.27755 12.6703 2.63964C12.6847 2.8441 12.6737 3.04993 12.6737 3.25576Z" fill="black"/>
<path d="M6.88764 17.8718C6.86216 17.931 6.83463 18.0921 6.7417 18.1947C6.46014 18.5059 6.1662 18.8094 5.85229 19.0882C5.54871 19.3574 5.17698 19.3326 4.92297 19.0669C4.66757 18.7991 4.67239 18.3985 4.94912 18.108C5.21347 17.8305 5.48538 17.5593 5.76349 17.2957C5.97552 17.0947 6.23504 17.065 6.49388 17.1821C6.74307 17.2943 6.87869 17.5015 6.88764 17.8718Z" fill="black"/>
<path d="M12.6759 20.778C12.6759 20.9646 12.6828 21.1518 12.6746 21.3384C12.6567 21.7342 12.3682 22.0151 11.9937 22.0109C11.6316 22.0075 11.3425 21.7314 11.3301 21.3508C11.317 20.9591 11.317 20.566 11.3301 20.1736C11.3425 19.7909 11.6289 19.5196 11.9944 19.5169C12.3717 19.5134 12.6573 19.7922 12.6746 20.1887C12.6828 20.3856 12.6759 20.5818 12.6759 20.778Z" fill="black"/>
<path d="M5.48648 4.72803C5.57253 4.77415 5.75426 4.83404 5.88712 4.94969C6.1611 5.18994 6.41374 5.45497 6.66569 5.71931C6.95344 6.02152 6.95344 6.42629 6.67808 6.69752C6.40961 6.96186 6.01654 6.96048 5.72328 6.67962C5.44586 6.41459 5.17395 6.14336 4.91236 5.86319C4.71548 5.65323 4.6783 5.3999 4.79327 5.13418C4.9041 4.87603 5.11268 4.75487 5.48648 4.72803Z" fill="black"/>
<path d="M17.0742 6.18035C17.1637 6.02339 17.2312 5.84579 17.3482 5.71293C17.5836 5.44721 17.8425 5.20283 18.0992 4.95707C18.4014 4.66864 18.809 4.66244 19.0768 4.93367C19.3459 5.2049 19.3363 5.61724 19.0437 5.9105C18.7532 6.201 18.4627 6.49288 18.1543 6.7641C17.9505 6.94377 17.7013 6.93414 17.4707 6.80678C17.2429 6.67943 17.1238 6.47429 17.0742 6.18035Z" fill="black"/>
<path d="M19.2693 18.527C19.25 18.8774 19.133 19.0859 18.879 19.2064C18.625 19.3269 18.3744 19.3035 18.1727 19.1183C17.8567 18.8278 17.5511 18.5235 17.2654 18.2034C17.0355 17.9466 17.0761 17.5543 17.3205 17.3147C17.5573 17.0827 17.9414 17.04 18.1885 17.2603C18.5155 17.5522 18.8246 17.8668 19.1199 18.1903C19.2129 18.2922 19.239 18.4547 19.2693 18.527Z" fill="black"/>
<path d="M3.20885 12.6794C3.02229 12.6794 2.83505 12.689 2.64918 12.6773C2.27883 12.6539 1.99659 12.3545 2.00003 12.0006C2.00278 11.6461 2.28709 11.3473 2.6602 11.3349C3.05121 11.3219 3.44428 11.3205 3.83528 11.3356C4.20977 11.3501 4.48306 11.6495 4.48031 12.0116C4.47824 12.373 4.20289 12.6587 3.82496 12.6787C3.61982 12.689 3.41399 12.6801 3.20885 12.6794Z" fill="black"/>
<path d="M20.7416 12.6803C20.555 12.6803 20.3684 12.6878 20.1819 12.6789C19.7923 12.6596 19.5128 12.3643 19.5197 11.9905C19.5265 11.6305 19.8046 11.3455 20.1853 11.3345C20.5674 11.3228 20.9501 11.3228 21.3322 11.3345C21.7074 11.3462 21.9924 11.6394 21.9992 11.9933C22.0061 12.3588 21.7163 12.6603 21.3288 12.6789C21.1339 12.6878 20.9377 12.6803 20.7416 12.6803Z" fill="black"/>
<g clip-path="url(#clip0_96_27043)">
<path d="M8.00284 11.2226C8.04337 9.50515 9.47273 8.06191 11.1785 8.00085C11.6548 7.98364 11.9756 8.2301 11.9984 8.63032C12.0212 9.02943 11.7259 9.30753 11.2496 9.33584C10.1877 9.39857 9.39946 10.1962 9.33784 11.2715C9.30454 11.8499 8.81106 12.1707 8.34811 11.9109C8.07612 11.7577 7.98175 11.509 8.00284 11.2226Z" fill="black"/>
</g>
<defs>
<clipPath id="clip0_96_27043">
<rect width="4" height="4.00167" fill="white" transform="translate(8 8)"/>
</clipPath>
</defs>
</svg>
