<svg width="24" height="24" viewBox="0 0 24 24" fill="none" xmlns="http://www.w3.org/2000/svg">
<path d="M2 3.01877C2.0969 3.01408 2.18181 3.00626 2.26621 3.00626C4.18541 3.00522 6.10513 3.00939 8.02433 3.00001C8.2374 2.99897 8.33742 3.06305 8.38952 3.26414C8.44578 3.4819 8.54893 3.68819 8.59738 3.907C8.64531 4.12371 8.74689 4.18623 8.96882 4.18519C11.2355 4.17633 13.5027 4.17946 15.7694 4.17946C15.872 4.17946 15.9746 4.17946 16.1116 4.17946C16.1116 4.9687 16.1116 5.73503 16.1116 6.53417C16.7139 6.53417 17.2827 6.53417 17.8735 6.53417C17.8735 8.12673 17.8735 9.68648 17.8735 11.2327C18.271 11.3509 18.6508 11.4395 19.0128 11.5765C20.8315 12.2647 22.0287 14.0667 21.9995 16.0489C21.9708 17.978 20.7075 19.7618 18.8779 20.3687C18.3596 20.5406 17.7938 20.6453 17.2489 20.6474C12.255 20.6682 7.26113 20.6599 2.26725 20.6594C2.18233 20.6594 2.09794 20.6515 2.00052 20.6469C2 14.7653 2 8.90035 2 3.01877ZM14.0888 19.4705C14.1049 19.4455 14.1205 19.42 14.1367 19.395C14.0664 19.3439 13.9872 19.3018 13.9273 19.2403C12.5728 17.8488 12.192 15.8332 12.9859 14.0594C13.6652 12.5413 14.8567 11.6421 16.4815 11.3056C16.5586 11.2895 16.6847 11.2228 16.6873 11.1748C16.7045 10.8138 16.6967 10.4518 16.6967 10.0819C12.1732 10.0819 7.6805 10.0819 3.18986 10.0819C3.18986 13.2217 3.18986 16.3417 3.18986 19.47C6.83811 19.4705 10.4634 19.4705 14.0888 19.4705ZM3.18309 8.87899C7.68779 8.87899 12.181 8.87899 16.6774 8.87899C16.6774 8.48463 16.6774 8.1085 16.6774 7.71414C16.5524 7.71414 16.4492 7.71414 16.3466 7.71414C13.8799 7.71414 11.4131 7.70945 8.94694 7.72143C8.68907 7.72247 8.58696 7.63391 8.51351 7.40417C8.1926 6.4055 7.85085 5.41308 7.53098 4.41389C7.47264 4.23155 7.39241 4.17633 7.20487 4.17737C5.95405 4.18571 4.70376 4.18154 3.45294 4.18206C3.36855 4.18206 3.28363 4.18883 3.18361 4.19352C3.18309 5.76212 3.18309 7.31196 3.18309 8.87899ZM20.8185 15.9411C20.8122 13.9963 19.2176 12.4069 17.2807 12.4147C15.3396 12.4225 13.7627 14.0135 13.7653 15.9619C13.7679 17.9082 15.3547 19.4883 17.301 19.4836C19.2447 19.4784 20.8247 17.8868 20.8185 15.9411ZM9.08916 5.3714C9.197 5.69544 9.30901 5.98613 9.38819 6.28516C9.43924 6.47791 9.52624 6.53938 9.72785 6.53834C11.3668 6.52949 13.0057 6.53365 14.6441 6.53261C14.7353 6.53261 14.8259 6.52428 14.9067 6.52011C14.9067 6.11689 14.9067 5.74909 14.9067 5.37192C12.9713 5.3714 11.0573 5.3714 9.08916 5.3714Z" fill="black"/>
<path d="M4.35156 14.1613C4.35156 13.7883 4.35156 13.4199 4.35156 13.0303C6.69795 13.0303 9.03599 13.0303 11.3938 13.0303C11.3938 13.4002 11.3938 13.769 11.3938 14.1613C9.05527 14.1613 6.71097 14.1613 4.35156 14.1613Z" fill="black"/>
<path d="M11.3988 15.3877C11.3988 15.7643 11.3988 16.1327 11.3988 16.5208C9.05084 16.5208 6.71227 16.5208 4.35547 16.5208C4.35547 16.1499 4.35547 15.781 4.35547 15.3877C6.69664 15.3877 9.04042 15.3877 11.3988 15.3877Z" fill="black"/>
<path d="M17.9543 15.6629C18.1679 15.4248 18.3815 15.1867 18.592 14.9518C18.8837 15.2555 19.1452 15.5269 19.389 15.7806C18.7003 16.4667 17.9788 17.1856 17.2687 17.8936C16.5805 17.2065 15.8637 16.4907 15.1484 15.777C15.411 15.5201 15.6814 15.256 16.0085 14.9367C16.2018 15.1659 16.4107 15.4144 16.6196 15.6629C16.6446 15.6483 16.6701 15.6337 16.6952 15.6191C16.6952 14.9575 16.6952 14.2959 16.6952 13.6187C17.0963 13.6187 17.4656 13.6187 17.8689 13.6187C17.8689 14.2876 17.8689 14.9575 17.8689 15.628C17.898 15.6394 17.9262 15.6514 17.9543 15.6629Z" fill="black"/>
</svg>
