<svg width="20" height="20" viewBox="0 0 20 20" fill="none" xmlns="http://www.w3.org/2000/svg">
<g clip-path="url(#clip0_4083_36170)">
<path d="M13.3327 8.33366C13.3327 8.77569 13.1571 9.19961 12.8445 9.51217C12.532 9.82473 12.108 10.0003 11.666 10.0003H5.68935C5.24736 10.0004 4.8235 10.1761 4.51102 10.4887L2.67602 12.3237C2.59327 12.4064 2.48785 12.4627 2.37309 12.4856C2.25833 12.5084 2.13938 12.4967 2.03127 12.4519C1.92317 12.4071 1.83077 12.3313 1.76575 12.234C1.70074 12.1367 1.66603 12.0223 1.66602 11.9053V3.33366C1.66602 2.89163 1.84161 2.46771 2.15417 2.15515C2.46673 1.84259 2.89065 1.66699 3.33268 1.66699H11.666C12.108 1.66699 12.532 1.84259 12.8445 2.15515C13.1571 2.46771 13.3327 2.89163 13.3327 3.33366V8.33366Z" stroke="#A700FF" stroke-width="1.66667" stroke-linecap="round" stroke-linejoin="round"/>
<path d="M16.666 7.5C17.108 7.5 17.532 7.6756 17.8445 7.98816C18.1571 8.30072 18.3327 8.72464 18.3327 9.16667V17.7383C18.3327 17.8553 18.298 17.9697 18.2329 18.067C18.1679 18.1643 18.0755 18.2401 17.9674 18.2849C17.8593 18.3297 17.7404 18.3414 17.6256 18.3186C17.5108 18.2957 17.4054 18.2394 17.3227 18.1567L15.4877 16.3217C15.1752 16.0091 14.7513 15.8334 14.3094 15.8333H8.33268C7.89065 15.8333 7.46673 15.6577 7.15417 15.3452C6.84161 15.0326 6.66602 14.6087 6.66602 14.1667V13.3333" stroke="#A700FF" stroke-width="1.66667" stroke-linecap="round" stroke-linejoin="round"/>
</g>
<defs>
<clipPath id="clip0_4083_36170">
<rect width="20" height="20" fill="white"/>
</clipPath>
</defs>
</svg>
