<svg width="17" height="17" viewBox="0 0 17 17" fill="none" xmlns="http://www.w3.org/2000/svg">
<path d="M8.33301 0C8.86739 0 9.39105 0.0503622 9.89746 0.146484C13.752 0.878449 16.6667 4.26555 16.667 8.33301L16.6592 8.69238C16.6441 9.04914 16.6065 9.40037 16.5479 9.74414L16.4766 10.1094C15.6627 13.8584 12.3258 16.667 8.33301 16.667L7.9043 16.6562C3.50146 16.4328 0 12.7914 0 8.33301C0.000166711 6.15157 0.838906 4.16598 2.21094 2.68066L2.49219 2.38965C3.99584 0.911779 6.05816 0.000173803 8.33301 0ZM15.1006 10.4287C14.9663 10.4893 14.8277 10.563 14.6807 10.6455C14.4016 10.8021 14.0433 11.0228 13.6904 11.168C13.316 11.322 12.8732 11.4264 12.377 11.3271C10.9021 11.0323 10.1232 11.0918 9.73633 11.2705C9.57008 11.3474 9.47904 11.4457 9.41895 11.5664C9.35152 11.7021 9.3057 11.9049 9.30566 12.2041C9.30567 12.8787 9.31026 13.3267 9.20996 13.7295C9.10638 14.1451 8.89503 14.4963 8.60156 15.001C8.50771 15.1624 8.44723 15.2997 8.41113 15.415C11.5589 15.3811 14.2147 13.2939 15.1006 10.4287ZM10.6318 1.63184C10.4531 2.14703 10.062 2.57013 9.48242 2.7998C9.20555 2.90954 9.11136 3.01534 9.07031 3.07715C9.0199 3.15329 8.99099 3.24935 8.95312 3.45703C8.92068 3.63508 8.87548 3.95028 8.72754 4.24902C8.56378 4.57945 8.29528 4.86154 7.87793 5.08203C6.73322 5.68667 5.18767 5.43521 3.7998 3.96875C3.5738 3.72997 3.39467 3.54906 3.24023 3.41211C2.00743 4.68758 1.25017 6.42067 1.25 8.33301C1.25 11.8417 3.8019 14.7521 7.15039 15.3154C7.21304 14.9673 7.36228 14.6468 7.52148 14.373C7.84665 13.8139 7.94592 13.6328 7.99707 13.4277C8.05131 13.2099 8.05566 12.9476 8.05566 12.2041C8.0557 11.7941 8.11536 11.3801 8.29883 11.0107C8.48983 10.6265 8.79577 10.3281 9.21191 10.1357C9.99059 9.77595 11.1226 9.80151 12.623 10.1016C12.7952 10.1359 12.9766 10.1097 13.2148 10.0117C13.4748 9.90477 13.7199 9.75121 14.0684 9.55566C14.431 9.3522 14.868 9.12719 15.3799 9.03613C15.4026 8.80526 15.417 8.57047 15.417 8.33301C15.4167 5.22672 13.4153 2.58613 10.6318 1.63184ZM8.33301 1.25C6.78616 1.25014 5.3564 1.7454 4.19141 2.58691C4.36259 2.74765 4.53213 2.92355 4.70801 3.10938C5.81872 4.28299 6.77251 4.25268 7.29395 3.97754C7.50134 3.86797 7.5708 3.76823 7.60742 3.69434C7.65959 3.58901 7.67814 3.47667 7.72266 3.23242C7.76178 3.0178 7.82427 2.69585 8.02832 2.3877C8.24204 2.06499 8.56702 1.81818 9.02246 1.6377C9.21573 1.56101 9.33317 1.45167 9.40332 1.33105C9.05506 1.27838 8.69733 1.25 8.33301 1.25Z" fill="#222222"/>
</svg>
