<svg width="16" height="16" viewBox="0 0 16 16" fill="none" xmlns="http://www.w3.org/2000/svg">
<path d="M1.50001 8.55856V7.44137C1.50001 6.62511 1.4974 6.14734 1.58204 5.71579C2.03707 3.39617 3.94936 2.41303 5.89845 1.86325C6.6581 1.64898 7.13118 1.51079 7.53126 1.50095C9.18679 1.46044 10.4403 2.72702 10.5 4.23044C10.5108 4.50622 10.2954 4.73901 10.0195 4.74997C9.74376 4.76075 9.51097 4.54531 9.50001 4.2695C9.46144 3.30381 8.65661 2.47401 7.55567 2.50095C7.31453 2.50692 6.99499 2.59244 6.16993 2.82516C4.30384 3.35152 2.90327 4.17638 2.56349 5.90817C2.50208 6.22128 2.50001 6.58202 2.50001 7.44137V8.55856C2.50001 9.41791 2.50208 9.77866 2.56349 10.0918C2.90327 11.8236 4.30384 12.6484 6.16993 13.1748C6.99498 13.4075 7.31453 13.493 7.55567 13.499C8.65661 13.5259 9.46144 12.6961 9.50001 11.7304C9.51097 11.4546 9.74376 11.2392 10.0195 11.25C10.2954 11.2609 10.5108 11.4937 10.5 11.7695C10.4403 13.2729 9.18679 14.5395 7.53126 14.499C7.13118 14.4891 6.6581 14.351 5.89845 14.1367C3.94936 13.5869 2.03707 12.6038 1.58204 10.2841C1.4974 9.8526 1.50001 9.37482 1.50001 8.55856Z" fill="white"/>
<path d="M11.9746 5.98422C12.1671 5.7865 12.4837 5.78209 12.6816 5.97446C12.7425 6.03358 12.8635 6.13055 13.0439 6.27231C13.2134 6.40543 13.4195 6.5664 13.6152 6.73227C13.8089 6.8964 14.0106 7.08085 14.167 7.26449C14.2453 7.35645 14.3232 7.45966 14.3828 7.57114C14.4404 7.67876 14.499 7.82766 14.499 7.99985C14.4989 8.17178 14.4403 8.32004 14.3828 8.42758C14.3231 8.53917 14.2454 8.64317 14.167 8.7352C14.0106 8.91881 13.8089 9.10235 13.6152 9.26645C13.4194 9.43236 13.2135 9.59325 13.0439 9.72641C12.8635 9.8681 12.7426 9.9651 12.6816 10.0243C12.4837 10.2167 12.1671 10.2124 11.9746 10.0145C11.7821 9.81648 11.7864 9.49993 11.9844 9.30746C12.0921 9.20278 12.2637 9.06835 12.4268 8.94028C12.6011 8.8033 12.7902 8.65501 12.9688 8.50375C12.97 8.50267 12.9714 8.50093 12.9727 8.49985H6.66602C6.38998 8.49985 6.16619 8.27584 6.16602 7.99985C6.16602 7.7237 6.38987 7.49985 6.66602 7.49985H12.9736C12.9721 7.49851 12.9703 7.49728 12.9688 7.49594C12.7902 7.34468 12.6012 7.1964 12.4268 7.05942C12.2636 6.93127 12.0921 6.79596 11.9844 6.69125C11.7864 6.49878 11.7821 6.18224 11.9746 5.98422Z" fill="white"/>
</svg>
