<svg width="24" height="24" viewBox="0 0 24 24" fill="none" xmlns="http://www.w3.org/2000/svg">
<path d="M11.1419 14.2503C10.065 14.2503 9.05002 14.2477 8.03506 14.255C7.94966 14.2555 7.85592 14.3123 7.78145 14.3654C6.8644 15.0215 5.94839 15.6793 5.03654 16.3427C4.80272 16.513 4.56525 16.6109 4.29081 16.4599C4.02939 16.3162 3.97419 16.0719 3.97888 15.7938C3.98721 15.3007 3.98096 14.807 3.98096 14.2909C3.89139 14.2815 3.81744 14.268 3.7435 14.2675C3.41386 14.2649 3.0837 14.267 2.75406 14.2659C2.20205 14.2644 2 14.0634 2 13.5145C2 9.9301 2 6.34572 2 2.76083C2 2.19528 2.19789 2 2.77072 2C8.21264 2 13.6546 2 19.0965 2C19.7042 2 19.8938 2.18643 19.8938 2.78739C19.8943 5.84267 19.8938 8.89744 19.8938 11.9527C19.8938 12.0636 19.8938 12.1746 19.8938 12.2886C20.4171 12.2126 20.553 12.2808 20.8025 12.7234C21.1556 13.3504 21.5091 13.9774 21.8627 14.6044C22.1002 15.0252 22.0273 15.3095 21.6128 15.5668C21.3993 15.6996 21.1743 15.8167 20.9733 15.9657C20.8941 16.0245 20.8478 16.1459 20.8186 16.2485C20.7936 16.3365 20.8264 16.4401 20.8113 16.5328C20.7837 16.6984 20.8618 16.7859 20.9962 16.8609C21.216 16.9832 21.4284 17.1176 21.643 17.2499C22.0054 17.4733 22.0966 17.7685 21.895 18.1336C21.5138 18.8246 21.1259 19.5115 20.7317 20.1953C20.5218 20.5588 20.2229 20.6353 19.8484 20.4421C19.6172 20.3229 19.3938 20.1864 19.1548 20.0859C19.0621 20.0469 18.9288 20.0614 18.8272 20.0932C18.3299 20.2489 18.1674 20.6041 18.2409 21.1019C18.2596 21.2279 18.2409 21.3628 18.2195 21.4904C18.168 21.7971 17.9597 21.9919 17.6498 21.995C16.8166 22.0033 15.9834 22.0044 15.1502 21.9945C14.8242 21.9903 14.6044 21.7654 14.5799 21.4326C14.5586 21.1472 14.5701 20.8592 14.5451 20.5744C14.5378 20.4921 14.469 20.3994 14.4029 20.34C14.0055 19.9818 13.5999 19.9922 13.1869 20.3234C13.1072 20.3874 13.0057 20.4244 12.9114 20.4692C12.5912 20.6223 12.2751 20.5416 12.1001 20.238C11.6887 19.524 11.2846 18.8064 10.8867 18.0846C10.7274 17.7956 10.805 17.4972 11.081 17.3077C11.2877 17.1655 11.5012 17.0275 11.7257 16.9166C11.9407 16.8103 11.9928 16.6666 12.0069 16.4302C12.0251 16.1302 11.9199 15.9678 11.6658 15.8469C11.4866 15.7615 11.3216 15.6454 11.1523 15.5397C10.7935 15.3158 10.717 15.0215 10.9185 14.6529C10.9836 14.5346 11.0497 14.4164 11.1419 14.2503ZM5.16777 14.7815C5.27192 14.7143 5.32972 14.6804 5.3844 14.6414C6.01817 14.1857 6.64412 13.7186 7.28934 13.2807C7.4565 13.1671 7.68459 13.0911 7.88612 13.088C9.06564 13.0703 10.2462 13.0692 11.4257 13.0864C11.7038 13.0906 11.8595 13.0177 11.9923 12.7641C12.2975 12.1824 12.5344 12.1282 13.1208 12.4407C13.1515 12.4568 13.1848 12.4704 13.2109 12.4922C13.6171 12.8281 14.0165 12.8026 14.4013 12.462C14.4685 12.4027 14.5357 12.3068 14.543 12.223C14.5669 11.9293 14.557 11.6335 14.5742 11.3387C14.5971 10.9466 14.8138 10.7336 15.2069 10.73C16.0053 10.7227 16.8036 10.7227 17.6014 10.73C17.9935 10.7336 18.2055 10.9445 18.2331 11.3419C18.2492 11.5752 18.2471 11.81 18.2528 12.0444C18.2622 12.4381 18.3096 12.4938 18.7007 12.5808C18.7007 9.45308 18.7007 6.32437 18.7007 3.19931C13.5197 3.19931 8.35481 3.19931 3.19462 3.19931C3.19462 6.50768 3.19462 9.79053 3.19462 13.0921C3.63935 13.0921 4.06324 13.0901 4.48714 13.0927C4.9277 13.0953 5.15996 13.3254 5.16621 13.7676C5.17141 14.0883 5.16777 14.4086 5.16777 14.7815ZM12.8474 19.1735C13.0989 19.0434 13.3296 18.9277 13.5567 18.8054C13.8332 18.6564 14.0738 18.6997 14.3295 18.8804C14.6174 19.084 14.9236 19.2704 15.2434 19.4173C15.5496 19.5579 15.7084 19.7532 15.7043 20.0932C15.7011 20.3307 15.724 20.5692 15.7355 20.8103C16.1979 20.8103 16.6203 20.8103 17.0989 20.8103C17.0989 20.5489 17.0989 20.2999 17.0989 20.0515C17.0994 19.7459 17.2592 19.5657 17.5285 19.4329C17.8529 19.273 18.1737 19.097 18.4674 18.8877C18.7325 18.6986 18.9783 18.657 19.2626 18.8111C19.4886 18.933 19.7188 19.048 19.962 19.1735C20.1849 18.7762 20.3958 18.4013 20.6171 18.0076C20.3874 17.8664 20.1786 17.7284 19.9609 17.6066C19.6776 17.4483 19.5704 17.2212 19.5954 16.8963C19.6204 16.5703 19.6224 16.2391 19.5954 15.9136C19.5672 15.5762 19.6839 15.3465 19.976 15.1856C20.1927 15.0663 20.3994 14.9294 20.6192 14.7945C20.3911 14.3904 20.1791 14.0154 19.9604 13.628C19.7094 13.7571 19.4761 13.8696 19.2506 13.9957C18.9731 14.1508 18.7346 14.1029 18.4794 13.9233C18.1909 13.7202 17.8878 13.528 17.567 13.3832C17.2473 13.239 17.0895 13.0323 17.0973 12.6859C17.103 12.4297 17.0983 12.1735 17.0983 11.9137C16.6093 11.9137 16.186 11.9137 15.6985 11.9137C15.6985 12.2069 15.7001 12.4901 15.698 12.7734C15.6959 13.0562 15.5512 13.2291 15.3002 13.3567C14.9622 13.528 14.6315 13.7186 14.3175 13.9306C14.0691 14.0982 13.8384 14.1498 13.5686 14.0014C13.3369 13.8738 13.0973 13.7587 12.8437 13.6296C12.6182 14.03 12.4073 14.4044 12.1876 14.7945C12.4204 14.9361 12.6307 15.0721 12.8479 15.195C13.1098 15.3429 13.2228 15.5522 13.2057 15.8584C13.1854 16.2203 13.1874 16.5854 13.2057 16.9478C13.2202 17.241 13.1187 17.4488 12.8651 17.5941C12.6412 17.7227 12.4245 17.8638 12.1881 18.0097C12.4115 18.4028 12.6235 18.7767 12.8474 19.1735Z" fill="black"/>
<path d="M9.29065 8.07279C9.29065 8.75707 9.29169 9.44187 9.29013 10.1261C9.28961 10.3954 9.16879 10.5927 8.9131 10.6906C8.67355 10.7823 8.40224 10.7188 8.26163 10.5131C8.18821 10.4058 8.13457 10.26 8.13405 10.1308C8.12519 8.76176 8.12519 7.39269 8.13092 6.02361C8.13248 5.66169 8.37672 5.41953 8.70688 5.41797C9.04381 5.41693 9.28805 5.67158 9.29065 6.04444C9.29377 6.72091 9.29065 7.39685 9.29065 8.07279Z" fill="black"/>
<path d="M13.7737 8.08251C13.7737 8.55015 13.7757 9.01832 13.7731 9.48596C13.7711 9.87965 13.5383 10.1468 13.1972 10.1557C12.8592 10.164 12.5978 9.89787 12.5952 9.50991C12.5879 8.55692 12.5884 7.60394 12.5947 6.65095C12.5973 6.25205 12.8379 5.99896 13.1862 6C13.5341 6.00104 13.77 6.25986 13.7731 6.65303C13.7763 7.12953 13.7737 7.60602 13.7737 8.08251Z" fill="black"/>
<path d="M11.5315 8.08846C11.5315 8.35717 11.5373 8.62588 11.53 8.89407C11.5206 9.24923 11.2774 9.49867 10.9498 9.50075C10.6223 9.50284 10.3682 9.25652 10.3624 8.9024C10.3531 8.34832 10.3531 7.79319 10.363 7.2391C10.3692 6.89228 10.6364 6.6345 10.9545 6.64023C11.2764 6.64596 11.5216 6.90321 11.5305 7.25629C11.5373 7.53385 11.5315 7.81141 11.5315 8.08846Z" fill="black"/>
<path d="M7.0585 8.07899C7.0585 8.35603 7.06527 8.6336 7.05693 8.91064C7.04704 9.24705 6.80384 9.49233 6.48618 9.50014C6.16956 9.50847 5.90085 9.27361 5.892 8.9372C5.8769 8.35708 5.8769 7.77591 5.89356 7.19631C5.90293 6.875 6.17112 6.63962 6.47212 6.64014C6.78041 6.64066 7.04443 6.89479 7.05589 7.2213C7.06631 7.5072 7.0585 7.7931 7.0585 8.07899Z" fill="black"/>
<path d="M16.004 8.08065C16.004 8.21917 16.0139 8.35874 16.0019 8.49622C15.9754 8.80451 15.7358 9.02635 15.4353 9.03416C15.1354 9.04197 14.875 8.83159 14.8521 8.52174C14.8302 8.22074 14.8302 7.91505 14.8542 7.61405C14.8776 7.32139 15.1395 7.1084 15.4218 7.1084C15.7113 7.10892 15.9707 7.34014 15.9998 7.63905C16.0139 7.78486 16.0024 7.93328 16.0024 8.08065C16.003 8.08065 16.0035 8.08065 16.004 8.08065Z" fill="black"/>
<path d="M16.3954 18.3257C15.3357 18.3205 14.4775 17.4576 14.4785 16.3989C14.4796 15.3413 15.344 14.4752 16.3996 14.4731C17.4661 14.4711 18.3399 15.3511 18.329 16.4161C18.3186 17.4774 17.4541 18.3309 16.3954 18.3257ZM15.6528 16.3843C15.6435 16.8025 15.983 17.1519 16.3996 17.154C16.8068 17.1556 17.1448 16.8254 17.1542 16.4171C17.1635 16.0073 16.8417 15.6657 16.4324 15.6511C16.0106 15.636 15.6622 15.963 15.6528 16.3843Z" fill="black"/>
</svg>
