<svg width="24" height="24" viewBox="0 0 24 24" fill="none" xmlns="http://www.w3.org/2000/svg">
<path d="M19.7305 2.42773C20.2244 1.93395 20.8321 1.81224 21.3711 2.1123C22.1413 2.54044 22.2851 3.54037 21.6514 4.18652C20.6913 5.1653 19.716 6.12973 18.7471 7.09863C17.6555 8.19076 16.5606 9.28024 15.4766 10.3799C15.3971 10.4605 15.3427 10.6047 15.334 10.7266C15.3006 11.1758 15.1622 11.5786 14.8447 11.9102C14.7455 12.0142 14.6322 12.1083 14.499 12.2285C14.9043 12.6265 15.2787 12.9901 15.6475 13.3584H15.6484C15.9443 13.6543 16.1066 13.9648 16.1279 14.29C16.1492 14.6152 16.0286 14.9468 15.7764 15.2842C14.979 16.3504 14.182 17.417 13.3848 18.4834C12.5874 19.55 11.7897 20.6172 10.9922 21.6836C10.9657 21.7191 10.9375 21.7536 10.9111 21.7871L10.9102 21.7861C10.7875 21.9445 10.6632 22.0423 10.5234 22.0527C10.3833 22.0631 10.2465 21.9855 10.1045 21.8438C8.97386 20.7162 7.8458 19.5865 6.7168 18.458C5.22594 16.9672 3.73499 15.4757 2.24414 13.9854C2.1462 13.8875 2.07123 13.8005 2.02148 13.7197C1.97147 13.6385 1.94563 13.5596 1.95117 13.4795C1.9568 13.3995 1.99297 13.3251 2.05371 13.252C2.11417 13.1791 2.20091 13.1042 2.31152 13.0215C4.46452 11.4104 6.6185 9.79911 8.77148 8.1875C9.11524 7.93039 9.4196 7.80275 9.71875 7.82227C10.0182 7.84189 10.301 8.00874 10.6025 8.31055C10.9835 8.69203 11.3607 9.07759 11.7578 9.48047C11.851 9.39238 11.9323 9.31943 12.0088 9.24023L12.1494 9.10645C12.4872 8.81742 12.8871 8.67916 13.3467 8.66797C13.3911 8.66689 13.4433 8.64946 13.4961 8.62109C13.5484 8.59298 13.5977 8.55536 13.6357 8.51758C15.67 6.49061 17.7003 4.45842 19.7305 2.42773ZM9.32715 19.7354C9.71954 20.1386 10.0888 20.5169 10.4678 20.9062C11.5796 19.4197 12.6936 17.931 13.7959 16.457C13.4019 16.0587 13.0228 15.6766 12.6318 15.2812C11.5218 16.7769 10.41 18.2765 9.32715 19.7354ZM7.12793 17.5547C7.63433 18.0646 8.15069 18.5837 8.68359 19.1201C9.7875 17.6327 10.8954 16.1384 11.9922 14.6611C11.6544 14.3205 11.3289 13.9944 11.0107 13.6738C9.71023 14.9738 8.41188 16.2718 7.12793 17.5547ZM4.89062 15.3193C5.42574 15.8623 5.93576 16.379 6.43164 16.8818C7.73949 15.5755 9.03938 14.2789 10.3271 12.9932C10.0137 12.6758 9.69074 12.3474 9.35254 12.0049C7.86521 13.1098 6.36849 14.2214 4.89062 15.3193ZM9.64648 8.70508C9.61854 8.70673 9.58699 8.71638 9.55176 8.74023C9.12993 9.02578 8.7213 9.3313 8.33301 9.61328C10.3646 11.6464 12.3695 13.654 14.3828 15.6699C14.6088 15.3688 14.8464 15.0536 15.082 14.7373C15.2045 14.573 15.2541 14.4554 15.2461 14.3486C15.2381 14.2417 15.1713 14.1318 15.0254 13.9854C14.4384 13.3957 13.8503 12.8068 13.2617 12.2188C12.1462 11.1028 11.029 9.98777 9.91504 8.87012C9.85232 8.8074 9.79337 8.75201 9.73242 8.72363C9.70307 8.71003 9.67458 8.7035 9.64648 8.70508ZM3.10156 13.5361C3.49271 13.9321 3.86398 14.3093 4.24609 14.6953C5.73333 13.591 7.22764 12.4823 8.69238 11.3945C8.30313 10.9994 7.92261 10.6111 7.53418 10.2168C6.05925 11.3211 4.57655 12.4318 3.10156 13.5361ZM13.4424 9.58301C13.2038 9.52085 13.0153 9.57275 12.8496 9.67969C12.6927 9.78099 12.5572 9.93079 12.4219 10.085C12.923 10.5861 13.4186 11.0812 13.9141 11.5771C14.3558 11.2182 14.5216 10.8976 14.4229 10.5596C14.2769 10.0613 13.9413 9.71301 13.4424 9.58301ZM14.4209 9.04688C14.5969 9.2225 14.7793 9.40567 14.9395 9.56543C16.4136 8.09489 17.9019 6.60916 19.3896 5.125C19.2207 4.95374 19.0402 4.7715 18.8682 4.59668C17.3753 6.09057 15.887 7.5792 14.4209 9.04688ZM21.0439 2.96191C20.8932 2.80835 20.6575 2.77965 20.502 2.92578C20.1578 3.25039 19.8354 3.59716 19.501 3.94141C19.6903 4.1261 19.8786 4.30931 20.0859 4.51074C20.4153 4.18082 20.7441 3.86292 21.0566 3.52832C21.2158 3.35807 21.1987 3.11998 21.0439 2.96191Z" fill="black" stroke="black" stroke-width="0.1"/>
<path d="M9.4541 3.13086C10.3532 3.13209 11.0662 3.85151 11.0635 4.75391C11.0608 5.65072 10.3324 6.3722 9.4375 6.36328C8.54626 6.35415 7.82767 5.6185 7.83496 4.72461C7.84249 3.84731 8.57219 3.12979 9.4541 3.13086ZM9.45801 4.01465C9.04813 4.01177 8.71556 4.3435 8.71777 4.75098C8.72021 5.14619 9.04917 5.47462 9.44629 5.47852C9.8555 5.48272 10.1836 5.15359 10.1807 4.73926C10.1781 4.33354 9.86198 4.01708 9.45801 4.01465Z" fill="black" stroke="black" stroke-width="0.1"/>
<path d="M19.668 12.1567C20.5522 12.1628 21.2651 12.8819 21.2656 13.7671C21.2659 14.657 20.5335 15.3883 19.6436 15.3862C18.752 15.3841 18.0313 14.6525 18.0361 13.7554C18.041 12.8565 18.7626 12.1508 19.668 12.1567ZM19.6562 13.0396C19.2471 13.0368 18.9274 13.3448 18.9189 13.7476C18.9106 14.1608 19.2354 14.4985 19.6416 14.5024C20.0446 14.5062 20.3857 14.1661 20.3828 13.7632C20.3803 13.363 20.0591 13.0425 19.6562 13.0396Z" fill="black" stroke="black" stroke-width="0.1"/>
<path d="M3.97656 7.44727C4.6585 7.45436 5.19043 7.99734 5.18555 8.68066C5.1804 9.35376 4.61945 9.90779 3.95215 9.89746C3.28038 9.88707 2.73274 9.32617 2.73926 8.65625C2.74587 7.97997 3.29845 7.44021 3.97656 7.44727ZM3.96973 8.33594C3.78338 8.33365 3.63351 8.47268 3.62402 8.65332C3.61939 8.7414 3.65707 8.82971 3.7207 8.89746C3.78433 8.9652 3.87087 9.00919 3.95996 9.01074C4.1432 9.01317 4.30448 8.85007 4.30176 8.66211C4.29842 8.4758 4.15895 8.33826 3.96973 8.33594Z" fill="black" stroke="black" stroke-width="0.1"/>
<path d="M16.1758 18.8223C16.8358 18.8457 17.3661 19.4142 17.3428 20.0732C17.3183 20.7546 16.761 21.2866 16.0889 21.2676C15.4164 21.2489 14.8729 20.6794 14.8936 20.0117C14.9148 19.3226 15.4823 18.7979 16.1758 18.8223ZM16.123 19.7061C15.932 19.7042 15.7772 19.861 15.7812 20.0508C15.7856 20.2284 15.9394 20.3808 16.1152 20.3828H16.1162C16.3036 20.3848 16.4595 20.2263 16.4551 20.0352C16.451 19.8491 16.3083 19.7079 16.123 19.7061Z" fill="black" stroke="black" stroke-width="0.1"/>
<path d="M19.6631 16.8696C19.7896 16.8727 19.884 16.9041 19.9512 16.9604C20.018 17.0167 20.0523 17.0925 20.0703 17.1724C20.0881 17.2516 20.0907 17.3394 20.0918 17.4224C20.0927 17.4925 20.0947 17.5591 20.0996 17.6206C20.1627 17.6292 20.2313 17.6337 20.3037 17.6362C20.3889 17.6392 20.4795 17.6429 20.5605 17.6616C20.6425 17.6806 20.7205 17.716 20.7764 17.7866C20.8322 17.8571 20.8611 17.9552 20.8594 18.0884C20.8576 18.216 20.8277 18.3112 20.7725 18.3794C20.7171 18.4478 20.6408 18.483 20.5605 18.5015C20.4812 18.5197 20.3929 18.522 20.3086 18.5229C20.2378 18.5237 20.1701 18.5254 20.1064 18.5298C20.0993 18.5958 20.095 18.6647 20.0928 18.7358C20.0902 18.8197 20.0863 18.9071 20.0674 18.9858C20.0482 19.0655 20.0133 19.1407 19.9453 19.1978C19.8776 19.2545 19.7829 19.2886 19.6543 19.2983C19.5837 19.3037 19.5193 19.2992 19.4629 19.2739C19.4052 19.2481 19.3618 19.2028 19.3271 19.1392C19.2932 19.0768 19.2664 18.9951 19.2441 18.8911C19.2236 18.7951 19.2063 18.6774 19.1885 18.5356C19.1281 18.5265 19.0593 18.5224 18.9854 18.52C18.8998 18.5172 18.8072 18.5136 18.7246 18.4937C18.641 18.4734 18.562 18.4352 18.5078 18.3589C18.4539 18.2829 18.4299 18.1775 18.4404 18.0347C18.4491 17.9181 18.4829 17.8313 18.5391 17.769C18.5952 17.707 18.6695 17.6751 18.7471 17.6577C18.8239 17.6405 18.9085 17.6369 18.9902 17.6353C19.06 17.6339 19.1274 17.6312 19.1914 17.6265C19.2004 17.5676 19.2047 17.5015 19.207 17.4302C19.2098 17.3458 19.2122 17.2546 19.2305 17.1724C19.2489 17.0894 19.2843 17.0097 19.3555 16.9526C19.4268 16.8956 19.527 16.8664 19.6631 16.8696Z" fill="black" stroke="black" stroke-width="0.1"/>
<path d="M4.75293 3.53564C4.8787 3.53661 4.9731 3.56566 5.04102 3.62061C5.10895 3.67559 5.1441 3.75149 5.16309 3.83154C5.18185 3.91083 5.1862 3.99915 5.1875 4.0835C5.1886 4.15505 5.18914 4.22342 5.19336 4.2876C5.25543 4.29641 5.32378 4.30055 5.39648 4.30322C5.48228 4.30637 5.57416 4.31023 5.65625 4.32959C5.73913 4.34915 5.81808 4.38528 5.87402 4.45752C5.92983 4.52961 5.95704 4.63026 5.95312 4.76611C5.94939 4.89215 5.91729 4.98592 5.86035 5.05225C5.80356 5.11821 5.72744 5.15145 5.64746 5.16846C5.56795 5.18533 5.47961 5.18758 5.39648 5.18799C5.32633 5.18833 5.25983 5.18916 5.19824 5.19385C5.19055 5.25609 5.18804 5.32288 5.18652 5.39307C5.18473 5.47602 5.18267 5.56421 5.16504 5.64404C5.14707 5.72505 5.11194 5.80237 5.04297 5.86084C4.97436 5.91895 4.87783 5.95371 4.74512 5.9624C4.6734 5.96712 4.60763 5.96128 4.55078 5.93408C4.49301 5.90637 4.44917 5.85936 4.41504 5.79443C4.35216 5.67467 4.31765 5.48167 4.28809 5.19385C4.22642 5.18912 4.15889 5.18714 4.08691 5.18604C4.00157 5.18472 3.91062 5.18135 3.8291 5.16162C3.74694 5.14169 3.66927 5.10399 3.61426 5.03174C3.55947 4.95959 3.53202 4.8599 3.53613 4.72607C3.53988 4.60252 3.57226 4.51011 3.62891 4.44385C3.68537 4.378 3.76168 4.34319 3.8418 4.32471C3.9212 4.30647 4.0089 4.30278 4.09277 4.30127C4.16261 4.30002 4.22954 4.29768 4.29199 4.29346C4.29656 4.22846 4.29984 4.15952 4.30176 4.0874C4.30406 4.00111 4.30871 3.91119 4.3291 3.83057C4.34972 3.74924 4.38685 3.67251 4.45703 3.61768C4.52726 3.56293 4.62423 3.53473 4.75293 3.53564Z" fill="black" stroke="black" stroke-width="0.1"/>
</svg>
