<svg width="20" height="20" viewBox="0 0 20 20" fill="none" xmlns="http://www.w3.org/2000/svg">
<path d="M11.6677 1.66602V6.66602C11.6676 6.94559 11.7378 7.22069 11.8719 7.46602L16.4635 15.866C16.6024 16.1199 16.6728 16.4055 16.6678 16.6948C16.6628 16.9841 16.5826 17.2671 16.435 17.516C16.2875 17.7649 16.0776 17.9711 15.8262 18.1143C15.5748 18.2575 15.2904 18.3327 15.001 18.3327H5.00104C4.71168 18.3327 4.4273 18.2575 4.17586 18.1143C3.92442 17.9711 3.7146 17.7649 3.56703 17.516C3.41946 17.2671 3.33923 16.9841 3.33423 16.6948C3.32924 16.4055 3.39965 16.1199 3.53854 15.866L8.1302 7.46602C8.26428 7.22069 8.33449 6.94559 8.33437 6.66602V1.66602" stroke="#A700FF" stroke-width="1.8" stroke-linecap="round" stroke-linejoin="round"/>
<path d="M5.37695 12.5H14.622" stroke="#A700FF" stroke-width="1.8" stroke-linecap="round" stroke-linejoin="round"/>
<path d="M7.08398 1.66602H12.9173" stroke="#A700FF" stroke-width="1.8" stroke-linecap="round" stroke-linejoin="round"/>
</svg>
