<svg width="24" height="24" viewBox="0 0 24 24" fill="none" xmlns="http://www.w3.org/2000/svg">
<path d="M3.82548 2.00418C3.95274 2.00418 4.03932 2.00418 4.1259 2.00418C7.51713 2.00418 10.9078 2.00574 14.2991 2C14.4899 1.99948 14.6193 2.05738 14.7518 2.19246C16.4004 3.87503 18.0559 5.5503 19.703 7.23392C19.7891 7.32207 19.8631 7.4681 19.8642 7.58754C19.8741 9.40468 19.8715 11.2213 19.8704 13.0384C19.8704 13.1062 19.8621 13.174 19.8563 13.2575C19.448 13.2575 19.0547 13.2575 18.6312 13.2575C18.6312 11.5958 18.6312 9.94867 18.6312 8.27497C16.9799 8.27497 15.3578 8.27497 13.6951 8.27497C13.6951 6.595 13.6951 4.94164 13.6951 3.27419C10.8061 3.27419 7.95733 3.27419 5.08715 3.27419C5.08715 3.67214 5.08715 4.06749 5.08715 4.49413C7.32102 4.49413 9.56688 4.49413 11.8305 4.49413C11.8305 8.26558 11.8305 12.0063 11.8305 15.7746C9.58305 15.7746 7.34449 15.7746 5.08559 15.7746C5.08559 17.4478 5.08559 19.0943 5.08559 20.7759C7.73827 20.7759 10.393 20.7759 13.0661 20.7759C13.0661 21.2056 13.0661 21.601 13.0661 22.0172C9.99561 22.0172 6.92515 22.0172 3.82653 22.0172C3.82653 19.9434 3.82653 17.8786 3.82653 15.7829C3.2043 15.7829 2.60919 15.7829 2 15.7829C2 12.0172 2 8.28227 2 4.51343C2.59771 4.51343 3.20012 4.51343 3.826 4.51343C3.82548 3.66536 3.82548 2.85224 3.82548 2.00418ZM10.5991 5.78136C8.12475 5.78136 5.68643 5.78136 3.23403 5.78136C3.23403 8.69796 3.23403 11.5973 3.23403 14.5092C5.69425 14.5092 8.14092 14.5092 10.5991 14.5092C10.5991 11.5958 10.5991 8.69639 10.5991 5.78136ZM14.9364 6.98878C15.8559 6.98878 16.7755 6.98878 17.7539 6.98878C16.7817 6.05518 15.8429 5.15391 14.9364 4.28342C14.9364 5.12784 14.9364 6.04684 14.9364 6.98878Z" fill="black"/>
<path d="M13.3984 17.6659C14.4322 16.6775 15.4159 15.7366 16.3844 14.8103C16.6139 15.0387 16.895 15.3183 17.2179 15.6396C16.7526 16.0725 16.2832 16.5096 15.8138 16.9466C15.8274 16.9701 15.8409 16.9936 15.8545 17.017C17.8975 17.017 19.9404 17.017 21.9996 17.017C21.9996 17.4489 21.9996 17.8516 21.9996 18.2839C19.9524 18.2839 17.9162 18.2839 15.8164 18.2839C16.3286 18.7638 16.7928 19.1993 17.2664 19.6431C16.8992 19.9842 16.6087 20.2544 16.3489 20.4959C15.4086 19.5946 14.427 18.6527 13.3984 17.6659Z" fill="black"/>
<path d="M9.99706 7.03027C9.99706 7.84809 9.99706 8.66069 9.99706 9.49467C9.60119 9.49467 9.20688 9.49467 8.77711 9.49467C8.77711 9.09933 8.77711 8.6972 8.77711 8.27995C8.35464 8.27995 7.96712 8.27995 7.55873 8.27995C7.55873 9.52023 7.55873 10.7569 7.55873 12.0133C7.95721 12.0133 8.34526 12.0133 8.75364 12.0133C8.75364 12.4342 8.75364 12.8358 8.75364 13.2546C7.53318 13.2546 6.32106 13.2546 5.08807 13.2546C5.08807 12.8494 5.08807 12.4478 5.08807 12.0253C5.48186 12.0253 5.87042 12.0253 6.28142 12.0253C6.28142 10.7699 6.28142 9.53483 6.28142 8.28203C5.88868 8.28203 5.50168 8.28203 5.07973 8.28203C5.07973 8.68155 5.07973 9.08368 5.07973 9.50041C4.64996 9.50041 4.25565 9.50041 3.8457 9.50041C3.8457 8.67686 3.8457 7.86374 3.8457 7.03027C5.89389 7.03027 7.93739 7.03027 9.99706 7.03027Z" fill="black"/>
</svg>
