<svg width="20" height="20" viewBox="0 0 20 20" fill="none" xmlns="http://www.w3.org/2000/svg">
<path d="M3.33398 10.0003V3.33366C3.33398 2.89164 3.50958 2.46771 3.82214 2.15515C4.1347 1.84259 4.55862 1.667 5.00065 1.667H11.6673C11.9314 1.66635 12.193 1.71801 12.437 1.81898C12.681 1.91996 12.9026 2.06827 13.089 2.25533L16.079 5.24533C16.2661 5.43172 16.4144 5.65332 16.5153 5.89733C16.6163 6.14133 16.668 6.40292 16.6673 6.667V16.667C16.6673 17.109 16.4917 17.5329 16.1792 17.8455C15.8666 18.1581 11.6927 17.917 11.2507 17.917" stroke="#A700FF" stroke-width="1.66667" stroke-linecap="round" stroke-linejoin="round"/>
<path d="M11.666 1.66699V5.83366C11.666 6.05467 11.7538 6.26663 11.9101 6.42291C12.0664 6.57919 12.2783 6.66699 12.4993 6.66699H16.666" stroke="#A700FF" stroke-width="1.66667" stroke-linecap="round" stroke-linejoin="round"/>
<path d="M5.4232 11.1731C5.44105 11.0775 5.49175 10.9912 5.56654 10.9291C5.64132 10.867 5.73547 10.833 5.83268 10.833C5.92989 10.833 6.02404 10.867 6.09883 10.9291C6.17361 10.9912 6.22432 11.0775 6.24217 11.1731L6.67998 13.4884C6.71107 13.653 6.79107 13.8044 6.90952 13.9228C7.02797 14.0413 7.17938 14.1213 7.34399 14.1524L9.65927 14.5902C9.75483 14.608 9.84113 14.6587 9.90324 14.7335C9.96535 14.8083 9.99935 14.9025 9.99935 14.9997C9.99935 15.0969 9.96535 15.191 9.90324 15.2658C9.84113 15.3406 9.75483 15.3913 9.65927 15.4092L7.34399 15.847C7.17938 15.8781 7.02797 15.9581 6.90952 16.0765C6.79107 16.195 6.71107 16.3464 6.67998 16.511L6.24217 18.8263C6.22432 18.9218 6.17361 19.0081 6.09883 19.0702C6.02404 19.1323 5.92989 19.1663 5.83268 19.1663C5.73547 19.1663 5.64132 19.1323 5.56654 19.0702C5.49175 19.0081 5.44105 18.9218 5.4232 18.8263L4.98539 16.511C4.95429 16.3464 4.8743 16.195 4.75584 16.0765C4.63739 15.9581 4.48598 15.8781 4.32138 15.847L2.0061 15.4092C1.91054 15.3913 1.82423 15.3406 1.76212 15.2658C1.70001 15.191 1.66602 15.0969 1.66602 14.9997C1.66602 14.9025 1.70001 14.8083 1.76212 14.7335C1.82423 14.6587 1.91054 14.608 2.0061 14.5902L4.32138 14.1524C4.48598 14.1213 4.63739 14.0413 4.75584 13.9228C4.8743 13.8044 4.95429 13.653 4.98539 13.4884L5.4232 11.1731Z" stroke="#A700FF" stroke-width="1.25" stroke-linecap="round" stroke-linejoin="round"/>
<path d="M9.72266 10V12.7778" stroke="#A700FF" stroke-width="1.38889" stroke-linecap="round" stroke-linejoin="round"/>
<path d="M11.1118 11.3887H8.33398" stroke="#A700FF" stroke-width="1.38889" stroke-linecap="round" stroke-linejoin="round"/>
</svg>
