<svg width="16" height="16" viewBox="0 0 16 16" fill="none" xmlns="http://www.w3.org/2000/svg">
<g clip-path="url(#clip0_4083_36014)">
<path d="M14.36 10H11.3333C10.9797 10 10.6406 10.1405 10.3905 10.3905C10.1405 10.6406 10 10.9797 10 11.3333V14.36" stroke="#A1AFC1" stroke-width="1.33333" stroke-linecap="round" stroke-linejoin="round"/>
<path d="M4.66602 2.22656V3.33323C4.66602 3.86366 4.87673 4.37237 5.2518 4.74744C5.62687 5.12252 6.13558 5.33323 6.66602 5.33323C7.01964 5.33323 7.35878 5.4737 7.60882 5.72375C7.85887 5.9738 7.99935 6.31294 7.99935 6.66656C7.99935 7.3999 8.59935 7.9999 9.33268 7.9999C9.6863 7.9999 10.0254 7.85942 10.2755 7.60937C10.5255 7.35932 10.666 7.02018 10.666 6.66656C10.666 5.93323 11.266 5.33323 11.9993 5.33323H14.1127" stroke="#A1AFC1" stroke-width="1.33333" stroke-linecap="round" stroke-linejoin="round"/>
<path d="M7.33385 14.633V11.9997C7.33385 11.6461 7.19338 11.3069 6.94333 11.0569C6.69328 10.8068 6.35414 10.6663 6.00052 10.6663C5.6469 10.6663 5.30776 10.5259 5.05771 10.2758C4.80766 10.0258 4.66719 9.68663 4.66719 9.33301V8.66634C4.66719 8.31272 4.52671 7.97358 4.27666 7.72353C4.02662 7.47348 3.68748 7.33301 3.33385 7.33301H1.36719" stroke="#A1AFC1" stroke-width="1.33333" stroke-linecap="round" stroke-linejoin="round"/>
<path d="M8.00065 14.6663C11.6825 14.6663 14.6673 11.6816 14.6673 7.99967C14.6673 4.31778 11.6825 1.33301 8.00065 1.33301C4.31875 1.33301 1.33398 4.31778 1.33398 7.99967C1.33398 11.6816 4.31875 14.6663 8.00065 14.6663Z" stroke="#A1AFC1" stroke-width="1.33333" stroke-linecap="round" stroke-linejoin="round"/>
</g>
<defs>
<clipPath id="clip0_4083_36014">
<rect width="16" height="16" fill="white"/>
</clipPath>
</defs>
</svg>
