<svg width="14" height="14" viewBox="0 0 14 14" fill="none" xmlns="http://www.w3.org/2000/svg">
<path d="M11.2295 12.834V9.91699C11.2295 9.35483 11.2293 8.97703 11.1914 8.69531C11.1553 8.42658 11.0925 8.31136 11.0166 8.23535C10.9406 8.15933 10.8249 8.09674 10.5557 8.06055C10.3239 8.0294 10.0272 8.02366 9.61621 8.02246L7.40039 13.0117C7.3302 13.1696 7.17372 13.2714 7.00098 13.2715C6.82808 13.2715 6.67081 13.1697 6.60059 13.0117L4.38379 8.02246C3.97341 8.02367 3.67687 8.02941 3.44531 8.06055C3.17626 8.09674 3.06135 8.15935 2.98535 8.23535C2.90935 8.31135 2.84674 8.42626 2.81055 8.69531C2.77267 8.97703 2.77149 9.35483 2.77148 9.91699V12.834C2.77148 13.0756 2.57561 13.2715 2.33398 13.2715C2.09236 13.2715 1.89648 13.0756 1.89648 12.834V9.91699C1.89648 9.37963 1.89585 8.93263 1.94336 8.5791C1.9926 8.21289 2.10052 7.8819 2.36621 7.61621C2.6319 7.35052 2.96289 7.2426 3.3291 7.19336C3.68263 7.14585 4.12963 7.14648 4.66699 7.14648C4.83989 7.14648 4.99716 7.24826 5.06738 7.40625L7 11.7559L8.93457 7.40625L8.96484 7.34961C9.04427 7.22445 9.18282 7.14648 9.33398 7.14648C9.87159 7.14648 10.3192 7.14582 10.6729 7.19336C11.0388 7.24261 11.3692 7.35075 11.6348 7.61621C11.9005 7.8819 12.0094 8.21289 12.0586 8.5791C12.1061 8.93261 12.1045 9.37967 12.1045 9.91699V12.834C12.1045 13.0756 11.9086 13.2715 11.667 13.2715C11.4255 13.2713 11.2295 13.0755 11.2295 12.834Z" fill="#94A3B8"/>
<path d="M7.58302 7.14648C7.73444 7.1466 7.87541 7.22476 7.95509 7.35352C8.03478 7.48246 8.04139 7.6437 7.97365 7.7793L7.44923 8.82715L7.7256 11.0293C7.7337 11.0941 7.72673 11.1607 7.70607 11.2227L7.41408 12.0977C7.35441 12.2761 7.18721 12.3965 6.99904 12.3965C6.81093 12.3963 6.64357 12.2761 6.584 12.0977L6.29298 11.2227C6.27233 11.1607 6.26535 11.0941 6.27345 11.0293L6.54884 8.82715L6.02443 7.7793C5.95683 7.64376 5.96432 7.48237 6.04396 7.35352C6.12372 7.22476 6.26455 7.14648 6.41603 7.14648H7.58302Z" fill="#94A3B8"/>
<path d="M8.60449 3.20801C8.60449 2.32216 7.88678 1.60369 7.00098 1.60352C6.11502 1.60352 5.39648 2.32205 5.39648 3.20801V3.79102C5.39648 4.67697 6.11502 5.39551 7.00098 5.39551C7.88678 5.39533 8.60449 4.67686 8.60449 3.79102V3.20801ZM9.47949 3.79102C9.47949 5.16011 8.37003 6.27033 7.00098 6.27051C5.63177 6.27051 4.52148 5.16022 4.52148 3.79102V3.20801C4.52148 1.8388 5.63177 0.728516 7.00098 0.728516C8.37003 0.728691 9.47949 1.83891 9.47949 3.20801V3.79102Z" fill="#94A3B8"/>
</svg>
