<svg width="14" height="14" viewBox="0 0 14 14" fill="none" xmlns="http://www.w3.org/2000/svg">
<path d="M12.1025 6.99902C12.1025 5.68047 12.1015 4.73521 12.0049 4.0166C11.91 3.31088 11.7307 2.88902 11.4199 2.57813C11.109 2.26718 10.6865 2.08711 9.98047 1.99219C9.26195 1.89562 8.31724 1.89453 6.99902 1.89453C5.68047 1.89453 4.73521 1.89557 4.0166 1.99219C3.31061 2.08711 2.88906 2.26719 2.57813 2.57813C2.26719 2.88906 2.08711 3.31061 1.99219 4.0166C1.89557 4.73521 1.89453 5.68047 1.89453 6.99902C1.89453 8.31724 1.89562 9.26195 1.99219 9.98047C2.08711 10.6865 2.26718 11.109 2.57813 11.4199C2.88902 11.7307 3.31088 11.91 4.0166 12.0049C4.73521 12.1015 5.68047 12.1025 6.99902 12.1025C8.31727 12.1025 9.26195 12.1015 9.98047 12.0049C10.6865 11.91 11.109 11.7309 11.4199 11.4199C11.7309 11.109 11.91 10.6865 12.0049 9.98047C12.1015 9.26195 12.1025 8.31727 12.1025 6.99902ZM12.9775 6.99902C12.9775 8.29268 12.9783 9.30726 12.8721 10.0977C12.7641 10.9005 12.5386 11.5375 12.0381 12.0381C11.5375 12.5386 10.9005 12.7641 10.0977 12.8721C9.30726 12.9783 8.29268 12.9775 6.99902 12.9775C5.70536 12.9775 4.69081 12.9783 3.90039 12.8721C3.09734 12.7641 2.4596 12.5387 1.95898 12.0381C1.45855 11.5376 1.23297 10.9005 1.125 10.0977C1.01873 9.30726 1.01953 8.29268 1.01953 6.99902C1.01953 5.70538 1.01877 4.69081 1.125 3.90039C1.23297 3.09734 1.45837 2.4596 1.95898 1.95898C2.4596 1.45837 3.09734 1.23297 3.90039 1.125C4.69081 1.01877 5.70538 1.01953 6.99902 1.01953C8.29268 1.01953 9.30726 1.01873 10.0977 1.125C10.9005 1.23297 11.5376 1.45855 12.0381 1.95898C12.5387 2.4596 12.7641 3.09734 12.8721 3.90039C12.9783 4.69081 12.9775 5.70536 12.9775 6.99902Z" fill="#94A3B8"/>
<path d="M5.98047 7.87305C5.98064 6.82627 6.82919 5.97771 7.87598 5.97754H8.31348V4.66504C8.31348 4.42352 8.5095 4.22771 8.75098 4.22754C8.9926 4.22754 9.18848 4.42341 9.18848 4.66504V8.74805C9.18848 8.93476 9.16812 9.12211 9.0957 9.28711C9.01476 9.47128 8.87987 9.60365 8.70703 9.68066C8.55536 9.74814 8.39501 9.76356 8.27246 9.76855C8.15224 9.77344 7.9998 9.76953 7.87598 9.76953C6.82909 9.76936 5.98047 8.91998 5.98047 7.87305ZM6.85547 7.87305C6.85547 8.43673 7.31234 8.89436 7.87598 8.89453C8.03876 8.89453 8.13975 8.89753 8.2373 8.89355C8.26605 8.89238 8.28787 8.8876 8.30469 8.88574C8.30934 8.85399 8.31348 8.80921 8.31348 8.74805V6.85254H7.87598C7.31244 6.85271 6.85564 7.30951 6.85547 7.87305Z" fill="#94A3B8"/>
<path d="M4.23047 9.33203V4.66504C4.23047 4.42341 4.42634 4.22754 4.66797 4.22754C4.90959 4.22754 5.10547 4.42341 5.10547 4.66504V9.33203C5.10529 9.57351 4.90948 9.76953 4.66797 9.76953C4.42645 9.76953 4.23064 9.57351 4.23047 9.33203Z" fill="#94A3B8"/>
</svg>
