<svg width="16" height="16" viewBox="0 0 16 16" fill="none" xmlns="http://www.w3.org/2000/svg">
<path d="M12.5719 8.00392C12.5719 7.57908 12.7179 7.09336 12.9675 6.77736L12.9762 6.76466L12.987 6.75392L13.6745 5.98536L13.6755 5.98439C13.8393 5.80222 13.9334 5.69633 13.9938 5.61134C14.0211 5.57298 14.0329 5.55029 14.0378 5.53907L14.0407 5.53029V5.52931C14.0407 5.5287 14.0409 5.52511 14.0397 5.51954C14.0372 5.50743 14.03 5.48333 14.0114 5.44044C13.9699 5.34464 13.8994 5.22124 13.777 5.0088L13.4479 4.43751C13.3177 4.21152 13.2411 4.08048 13.1745 3.99122C13.1443 3.9508 13.1256 3.93123 13.1159 3.92286C13.1123 3.9198 13.1099 3.91857 13.1091 3.91798L13.1081 3.917C13.1077 3.91693 13.105 3.91638 13.0993 3.91603C13.0867 3.91526 13.06 3.91599 13.0104 3.92384C12.9006 3.94128 12.7538 3.98147 12.5026 4.05275V4.05372L11.6882 4.28224L11.6774 4.28614L11.6657 4.2881C11.2448 4.38515 10.8028 4.33021 10.4186 4.13282L10.3971 4.12111L10.1725 3.9922L10.1628 3.98634L10.153 3.9795C9.82376 3.76858 9.57041 3.45791 9.43034 3.09279L9.42643 3.08204L9.4235 3.07228L9.20085 2.40724L9.19987 2.40626C9.12311 2.17553 9.07843 2.04215 9.03483 1.94825C9.01518 1.90595 9.00202 1.88472 8.99479 1.87501C8.99145 1.87052 8.98932 1.86856 8.98893 1.86818H8.98796C8.98751 1.86795 8.98441 1.86601 8.97917 1.86427C8.96764 1.8605 8.94362 1.85483 8.89811 1.84962C8.79562 1.8379 8.65547 1.83693 8.41276 1.83693H7.6696C7.42661 1.83693 7.28583 1.83789 7.18327 1.84962C7.13774 1.85484 7.11373 1.8605 7.10222 1.86427L7.09343 1.86818H7.09245C7.09208 1.86855 7.0907 1.87085 7.08757 1.87501C7.08034 1.88472 7.0662 1.90594 7.04655 1.94825C7.00296 2.04215 6.95828 2.17552 6.88151 2.40626L6.88054 2.40724L6.65788 3.07228L6.65495 3.08204L6.65104 3.09279C6.51097 3.45792 6.25763 3.76858 5.92839 3.9795L5.91862 3.98634L5.90886 3.9922L5.68425 4.12111L5.66276 4.13282C5.2786 4.33021 4.83654 4.38515 4.41569 4.2881L4.40397 4.28614L4.39323 4.28224L3.57975 4.05372L3.57878 4.05275C3.32762 3.98147 3.18081 3.94128 3.07097 3.92384C3.02145 3.91599 2.99473 3.91526 2.9821 3.91603L2.97331 3.917C2.97297 3.91722 2.96992 3.91905 2.9655 3.92286C2.9558 3.93123 2.93709 3.9508 2.9069 3.99122C2.84027 4.08048 2.76368 4.21153 2.63347 4.43751L2.30436 5.0088C2.18195 5.22124 2.11147 5.34464 2.06999 5.44044C2.05142 5.48333 2.04418 5.50743 2.04167 5.51954C2.04053 5.52511 2.04073 5.5287 2.04069 5.52931V5.53029L2.04362 5.53907C2.04852 5.55029 2.06028 5.57298 2.08757 5.61134C2.11778 5.65382 2.15713 5.70094 2.20866 5.76075L2.40593 5.98439L2.4069 5.98536L3.0944 6.75392L3.10514 6.76466L3.11393 6.77736C3.36352 7.09336 3.50944 7.57907 3.50944 8.00392C3.50934 8.42887 3.3635 8.91453 3.11393 9.23048L3.10514 9.2422L3.0944 9.25392L2.4069 10.0225L2.40593 10.0234C2.2423 10.2054 2.14798 10.3116 2.08757 10.3965C2.06049 10.4346 2.0485 10.4566 2.04362 10.4678C2.04136 10.473 2.04085 10.476 2.04069 10.4766V10.4785C2.04075 10.4794 2.04063 10.4822 2.04167 10.4873C2.04413 10.4993 2.05136 10.5234 2.06999 10.5664C2.11147 10.6622 2.18195 10.7856 2.30436 10.9981L2.63347 11.5693C2.76386 11.7956 2.84021 11.9273 2.9069 12.0166C2.93691 12.0568 2.95579 12.0756 2.9655 12.084C2.9696 12.0875 2.97173 12.0895 2.97233 12.0899H2.97331L2.9821 12.0908C2.99473 12.0916 3.02142 12.0909 3.07097 12.083C3.18081 12.0656 3.32762 12.0254 3.57878 11.9541H3.57975L4.39323 11.7246L4.40397 11.7217L4.41569 11.7188C4.78404 11.6338 5.16858 11.6651 5.51628 11.8067L5.66276 11.874L5.68425 11.8858L5.90886 12.0156L5.92839 12.0274C6.21658 12.212 6.44665 12.4732 6.59343 12.7803L6.65104 12.9141L6.65495 12.9248L6.65788 12.9346L6.88054 13.5996L6.88151 13.6006C6.95829 13.8314 7.00296 13.9647 7.04655 14.0586C7.06623 14.101 7.08033 14.1221 7.08757 14.1318C7.09061 14.1359 7.09194 14.1382 7.09245 14.1387H7.09343V14.1397C7.09387 14.1399 7.09697 14.1409 7.10222 14.1426C7.1137 14.1464 7.13757 14.153 7.18327 14.1582C7.28583 14.1699 7.42661 14.1699 7.6696 14.1699H8.41276C8.65547 14.1699 8.79562 14.1699 8.89811 14.1582C8.9438 14.153 8.96767 14.1464 8.97917 14.1426C8.98441 14.1409 8.98751 14.1399 8.98796 14.1397V14.1387H8.98893C8.98943 14.1382 8.9916 14.1361 8.99479 14.1318C9.00206 14.122 9.01528 14.1007 9.03483 14.0586C9.07842 13.9647 9.12309 13.8314 9.19987 13.6006L9.20085 13.5996L9.4235 12.9346L9.42643 12.9248L9.43034 12.9141C9.57043 12.549 9.8238 12.2382 10.153 12.0274L10.1725 12.0156L10.3971 11.8858L10.4186 11.874C10.7547 11.7013 11.1348 11.6378 11.5065 11.6895L11.6657 11.7188L11.6891 11.7246L12.5016 11.9541H12.5026C12.7538 12.0254 12.9006 12.0656 13.0104 12.083C13.06 12.0909 13.0867 12.0916 13.0993 12.0908L13.1081 12.0899H13.1091C13.1096 12.0895 13.1117 12.0876 13.1159 12.084C13.1256 12.0756 13.1445 12.0568 13.1745 12.0166C13.2412 11.9273 13.3184 11.7958 13.4489 11.5693L13.777 10.9981C13.8994 10.7856 13.9699 10.6622 14.0114 10.5664C14.03 10.5234 14.0373 10.4993 14.0397 10.4873C14.0408 10.4823 14.0406 10.4794 14.0407 10.4785V10.4766C14.0405 10.476 14.04 10.473 14.0378 10.4678C14.0329 10.4566 14.0209 10.4346 13.9938 10.3965C13.9334 10.3116 13.8391 10.2054 13.6755 10.0234L13.6745 10.0225L12.987 9.25392L12.9762 9.2422L12.9675 9.23048C12.7179 8.91453 12.572 8.42887 12.5719 8.00392ZM13.5719 8.00392C13.5721 8.24234 13.6634 8.49378 13.7487 8.60548L14.4186 9.3545L14.6315 9.59376C14.6977 9.67078 14.7576 9.74524 14.8083 9.81642C14.9171 9.96947 15.0113 10.1487 15.0348 10.3731C15.0583 10.5972 15.0039 10.7917 14.9294 10.9639C14.8599 11.1243 14.755 11.3048 14.6442 11.4971L14.3151 12.0684C14.1969 12.2736 14.0868 12.4662 13.9762 12.6143C13.8576 12.7731 13.7064 12.9256 13.485 13.0156C13.2635 13.1057 13.049 13.1024 12.8532 13.0713C12.6707 13.0423 12.4578 12.9806 12.2301 12.916V12.9151L11.4352 12.6924C11.2476 12.6504 11.0512 12.6746 10.8796 12.7617L10.6842 12.874C10.5407 12.9683 10.43 13.1054 10.3669 13.2656L10.1491 13.917C10.0797 14.1257 10.0151 14.3222 9.94206 14.4795C9.86353 14.6486 9.75563 14.819 9.5739 14.9502C9.39209 15.0815 9.19667 15.1302 9.01139 15.1514C8.83912 15.1711 8.63238 15.1699 8.41276 15.1699H7.6696C7.44979 15.1699 7.2424 15.1711 7.06999 15.1514C6.8847 15.1302 6.6893 15.0815 6.50749 14.9502C6.32575 14.819 6.21785 14.6486 6.13932 14.4795C6.06633 14.3222 6.00172 14.1257 5.93229 13.917L5.71354 13.2656C5.65036 13.1054 5.53969 12.9692 5.39616 12.875L5.20085 12.7617C5.02908 12.6748 4.83286 12.6502 4.64518 12.6924L3.85026 12.9151L3.85124 12.916C3.62358 12.9806 3.41068 13.0423 3.22819 13.0713C3.03235 13.1024 2.8179 13.1057 2.59636 13.0156C2.37499 12.9256 2.22376 12.7731 2.10514 12.6143C1.99463 12.4662 1.88451 12.2736 1.76628 12.0684L1.43718 11.4971C1.32641 11.3048 1.22146 11.1242 1.15202 10.9639C1.07748 10.7917 1.02304 10.5972 1.04655 10.3731C1.07013 10.1487 1.16427 9.96947 1.27311 9.81642C1.37443 9.67399 1.51444 9.51945 1.66276 9.3545L2.33171 8.60548C2.41715 8.49403 2.50933 8.24269 2.50944 8.00392C2.50944 7.76471 2.41737 7.51152 2.33171 7.4004L1.66179 6.65138V6.6504C1.51398 6.48603 1.37409 6.33243 1.27311 6.19044C1.16427 6.0374 1.07013 5.8582 1.04655 5.6338C1.0231 5.40964 1.07746 5.21518 1.15202 5.04298C1.22149 4.88256 1.32636 4.70209 1.43718 4.50978L1.76628 3.93849C1.88455 3.73323 1.99459 3.54069 2.10514 3.39259C2.22378 3.23375 2.37494 3.0813 2.59636 2.99122C2.81789 2.90112 3.03235 2.90544 3.22819 2.93654C3.41063 2.96552 3.62365 3.02625 3.85124 3.09083H3.85026L4.63932 3.31349H4.6403C4.82977 3.35718 5.02841 3.33231 5.20182 3.24415L5.39128 3.13478C5.53739 3.04032 5.64975 2.90266 5.71354 2.74025L5.93229 2.08986C6.00172 1.88115 6.06631 1.68465 6.13932 1.52736C6.21781 1.35831 6.32593 1.18885 6.50749 1.05763C6.68931 0.926325 6.8847 0.876677 7.06999 0.855481C7.24239 0.835787 7.44981 0.836926 7.6696 0.836926H8.41276C8.63237 0.836925 8.83912 0.835805 9.01139 0.855481C9.19669 0.876677 9.39208 0.926325 9.5739 1.05763C9.75547 1.18885 9.86357 1.3583 9.94206 1.52736C10.0151 1.68465 10.0797 1.88115 10.1491 2.08986L10.3669 2.74025C10.4305 2.90254 10.5433 3.04027 10.6891 3.13478L10.8786 3.24415C11.0086 3.31042 11.1526 3.3413 11.2966 3.334L11.4411 3.31349L12.2301 3.09083L12.5583 3.00001C12.6628 2.97297 12.7619 2.95104 12.8532 2.93654C13.049 2.90544 13.2635 2.90112 13.485 2.99122C13.7065 3.0813 13.8576 3.23375 13.9762 3.39259C14.0868 3.54069 14.1968 3.73322 14.3151 3.93849L14.6442 4.50978C14.755 4.7021 14.8599 4.88255 14.9294 5.04298C15.0039 5.21519 15.0583 5.40964 15.0348 5.6338C15.0113 5.8582 14.9171 6.03739 14.8083 6.19044C14.7072 6.33257 14.5666 6.48585 14.4186 6.6504L14.4196 6.65138L13.7487 7.4004C13.6631 7.51177 13.5719 7.76506 13.5719 8.00392Z" fill="#94A3B8"/>
<path d="M9.84668 7.99805C9.8465 6.98567 9.02511 6.16504 8.0127 6.16504C7.00043 6.16521 6.17986 6.98578 6.17969 7.99805C6.17969 9.01046 7.00032 9.83186 8.0127 9.83203C9.02522 9.83203 9.84668 9.01057 9.84668 7.99805ZM10.8467 7.99805C10.8467 9.56285 9.5775 10.832 8.0127 10.832C6.44804 10.8319 5.17969 9.56275 5.17969 7.99805C5.17986 6.4335 6.44815 5.16521 8.0127 5.16504C9.57739 5.16504 10.8465 6.43339 10.8467 7.99805Z" fill="#94A3B8"/>
</svg>
