<svg width="24" height="24" viewBox="0 0 24 24" fill="none" xmlns="http://www.w3.org/2000/svg">
<path d="M11.7451 22C9.09949 22 6.45442 22 3.80883 22C3.21912 22 3.00417 21.7882 3.00417 21.2052C3.00417 17.362 3.00625 13.5188 3 9.67559C2.99948 9.35341 3.10462 9.12128 3.35289 8.91257C5.97818 6.69897 8.59671 4.47809 11.2178 2.25929C11.6222 1.91734 11.8752 1.91317 12.2723 2.2494C14.9007 4.47289 17.526 6.69949 20.1576 8.91933C20.397 9.12128 20.5016 9.34821 20.5011 9.66102C20.4954 13.5131 20.4974 17.3646 20.4969 21.2167C20.4969 21.7835 20.2783 22 19.7074 22C17.0534 22 14.399 22 11.7451 22ZM4.2554 20.729C9.26864 20.729 14.2512 20.729 19.2363 20.729C19.2405 20.6759 19.2452 20.6421 19.2452 20.6077C19.2457 17.0586 19.2473 13.5094 19.2384 9.96029C19.2379 9.85463 19.152 9.72139 19.0661 9.64852C17.2106 8.06783 15.3499 6.4939 13.4897 4.91894C12.9151 4.43229 12.3389 3.94772 11.7571 3.45639C11.6894 3.50948 11.6347 3.54956 11.5827 3.59328C9.21191 5.5992 6.84321 7.60617 4.46931 9.60793C4.31837 9.73544 4.24967 9.85984 4.25019 10.0644C4.25696 13.5266 4.2554 16.9894 4.2554 20.4516C4.2554 20.538 4.2554 20.6239 4.2554 20.729Z" fill="black"/>
<path d="M17.6746 9.97016C17.6746 10.4032 17.6746 10.7988 17.6746 11.2214C17.5617 11.2214 17.4602 11.2214 17.3587 11.2214C15.0259 11.2214 12.6931 11.2229 10.3603 11.2177C10.1704 11.2172 10.0585 11.2563 9.9554 11.4426C9.63582 12.0208 9.12003 12.3149 8.4611 12.3113C7.81311 12.3076 7.30564 12.0141 6.99023 11.4462C6.88822 11.263 6.78204 11.2053 6.58738 11.2172C6.34588 11.2323 6.10229 11.2209 5.83789 11.2209C5.83789 10.8118 5.83789 10.4094 5.83789 9.96964C6.11062 9.96964 6.39428 9.98369 6.67482 9.96183C6.77111 9.95454 6.89863 9.87959 6.94599 9.79736C7.28742 9.20401 7.79385 8.88132 8.47307 8.88184C9.15178 8.88236 9.67226 9.19725 9.98663 9.80569C10.0699 9.96651 10.1792 9.97068 10.3223 9.97068C12.664 9.9686 15.0051 9.96912 17.3467 9.96912C17.4492 9.97016 17.5518 9.97016 17.6746 9.97016ZM8.93734 10.6025C8.94254 10.3543 8.73591 10.1383 8.48556 10.1294C8.23782 10.1211 8.01818 10.3246 8.0062 10.575C7.99371 10.8336 8.21127 11.0611 8.47047 11.0611C8.7203 11.0611 8.93214 10.8529 8.93734 10.6025Z" fill="black"/>
<path d="M5.82617 14.97C5.82617 14.5385 5.82617 14.1424 5.82617 13.7187C5.9386 13.7187 6.03957 13.7187 6.14106 13.7187C8.48269 13.7187 10.8238 13.7161 13.1654 13.7234C13.3559 13.724 13.4491 13.6646 13.5438 13.4981C13.8702 12.924 14.3823 12.6257 15.0407 12.6304C15.6986 12.6351 16.2066 12.9385 16.5267 13.5173C16.6094 13.6672 16.6906 13.7333 16.8645 13.7229C17.1232 13.7068 17.3839 13.7187 17.6645 13.7187C17.6645 14.1294 17.6645 14.5317 17.6645 14.97C17.3975 14.97 17.1237 14.9757 16.8499 14.9674C16.7068 14.9632 16.6178 14.996 16.5439 15.1376C16.2259 15.7444 15.7085 16.0593 15.0288 16.0588C14.349 16.0583 13.8301 15.7429 13.5152 15.135C13.4324 14.9757 13.3257 14.9679 13.1811 14.9679C10.8394 14.97 8.49831 14.9695 6.15668 14.9695C6.05362 14.97 5.95109 14.97 5.82617 14.97ZM14.564 14.3241C14.552 14.5723 14.7529 14.7941 15.0027 14.8091C15.2593 14.8248 15.4899 14.6103 15.4951 14.3506C15.4998 14.1018 15.2937 13.8863 15.0428 13.878C14.7951 13.8702 14.5759 14.0742 14.564 14.3241Z" fill="black"/>
<path d="M5.82617 18.7194C5.82617 18.2952 5.82617 17.8997 5.82617 17.4682C5.92142 17.4682 6.01302 17.4682 6.10463 17.4682C7.00662 17.4682 7.90861 17.4645 8.81008 17.4713C8.97403 17.4723 9.06979 17.4349 9.15515 17.2777C9.47577 16.6864 9.99104 16.3788 10.6599 16.3804C11.3282 16.3819 11.8413 16.6901 12.162 17.2824C12.2395 17.4255 12.3238 17.4723 12.4831 17.4718C14.1132 17.4661 15.7439 17.4682 17.374 17.4682C17.4677 17.4682 17.5614 17.4682 17.6702 17.4682C17.6702 17.8903 17.6702 18.2921 17.6702 18.7194C17.5671 18.7194 17.474 18.7194 17.3808 18.7194C15.759 18.7194 14.1372 18.7215 12.5159 18.7163C12.3441 18.7158 12.2437 18.7527 12.1521 18.9214C11.8372 19.5027 11.3271 19.8051 10.6682 19.8088C9.99833 19.8124 9.48357 19.5074 9.1588 18.9193C9.07552 18.7689 8.99276 18.7132 8.82048 18.7147C7.83262 18.7241 6.84423 18.7194 5.82617 18.7194ZM10.6458 17.6274C10.396 17.6337 10.1883 17.8481 10.1909 18.0974C10.1935 18.3483 10.4043 18.5581 10.6541 18.5591C10.9133 18.5601 11.1325 18.3337 11.122 18.0761C11.1122 17.8273 10.8936 17.6212 10.6458 17.6274Z" fill="black"/>
</svg>
