<svg width="16" height="16" viewBox="0 0 16 16" fill="none" xmlns="http://www.w3.org/2000/svg">
<path d="M13.5 4.33301C13.5 3.50458 12.8284 2.83301 12 2.83301C11.1716 2.83301 10.5 3.50458 10.5 4.33301C10.5 5.16144 11.1716 5.83301 12 5.83301C12.8284 5.83301 13.5 5.16144 13.5 4.33301ZM14.5 4.33301C14.5 5.71372 13.3807 6.83301 12 6.83301C10.6193 6.83301 9.5 5.71372 9.5 4.33301C9.5 2.9523 10.6193 1.83301 12 1.83301C13.3807 1.83301 14.5 2.9523 14.5 4.33301Z" fill="#94A3B8"/>
<path d="M5.5 8C5.5 7.17157 4.82843 6.5 4 6.5C3.17157 6.5 2.5 7.17157 2.5 8C2.5 8.82843 3.17157 9.5 4 9.5C4.82843 9.5 5.5 8.82843 5.5 8ZM6.5 8C6.5 9.38071 5.38071 10.5 4 10.5C2.61929 10.5 1.5 9.38071 1.5 8C1.5 6.61929 2.61929 5.5 4 5.5C5.38071 5.5 6.5 6.61929 6.5 8Z" fill="#94A3B8"/>
<path d="M13.5 11.666C13.5 10.8376 12.8284 10.166 12 10.166C11.1716 10.166 10.5 10.8376 10.5 11.666C10.5 12.4944 11.1716 13.166 12 13.166C12.8284 13.166 13.5 12.4944 13.5 11.666ZM14.5 11.666C14.5 13.0467 13.3807 14.166 12 14.166C10.6193 14.166 9.5 13.0467 9.5 11.666C9.5 10.2853 10.6193 9.16602 12 9.16602C13.3807 9.16602 14.5 10.2853 14.5 11.666Z" fill="#94A3B8"/>
<path d="M10.3623 10.3789L10.1523 10.833L9.94336 11.2871L5.60938 9.28809L6.0293 8.37988L10.3623 10.3789ZM10.1523 5.16699L10.3623 5.62109L6.0293 7.62109L5.60938 6.71289L9.94336 4.71289L10.1523 5.16699Z" fill="#94A3B8"/>
</svg>
