<svg width="14" height="14" viewBox="0 0 14 14" fill="none" xmlns="http://www.w3.org/2000/svg">
<path d="M2.60666 2.31564C2.77751 2.14479 3.05494 2.14479 3.2258 2.31564L3.8088 2.89963C3.9795 3.07049 3.97961 3.34699 3.8088 3.51779C3.638 3.68859 3.36151 3.68848 3.19064 3.51779L2.60666 2.93478C2.4358 2.76393 2.4358 2.4865 2.60666 2.31564ZM10.7736 2.31564C10.9444 2.14506 11.221 2.14517 11.3918 2.31564C11.5627 2.4865 11.5627 2.76393 11.3918 2.93478L10.8088 3.51779C10.638 3.68859 10.3615 3.68848 10.1906 3.51779C10.0198 3.34693 10.0198 3.07048 10.1906 2.89963L10.7736 2.31564Z" fill="#94A3B8"/>
<path d="M11.8125 7.58398C11.8125 4.92611 9.65787 2.77148 7 2.77148C4.34213 2.77148 2.1875 4.92611 2.1875 7.58398C2.1875 10.2419 4.34213 12.3965 7 12.3965C9.65787 12.3965 11.8125 10.2419 11.8125 7.58398ZM12.6875 7.58398C12.6875 10.7251 10.1411 13.2715 7 13.2715C3.85888 13.2715 1.3125 10.7251 1.3125 7.58398C1.3125 4.44286 3.85888 1.89648 7 1.89648C10.1411 1.89648 12.6875 4.44286 12.6875 7.58398Z" fill="#94A3B8"/>
<path d="M6.5625 5.54199C6.5625 5.30037 6.75838 5.10449 7 5.10449C7.24162 5.10449 7.4375 5.30037 7.4375 5.54199V7.69434L8.47559 8.73242C8.64644 8.90328 8.64644 9.18071 8.47559 9.35156C8.30476 9.52204 8.02818 9.52215 7.85742 9.35156L6.69043 8.18457C6.60848 8.10254 6.5625 7.99096 6.5625 7.875V5.54199Z" fill="#94A3B8"/>
<path d="M6.5625 2.04199V1.16699C6.5625 0.925368 6.75838 0.729492 7 0.729492C7.24162 0.729492 7.4375 0.925368 7.4375 1.16699V2.04199C7.4375 2.28362 7.24162 2.47949 7 2.47949C6.75838 2.47949 6.5625 2.28362 6.5625 2.04199Z" fill="#94A3B8"/>
<path d="M8.16699 0.729492C8.40862 0.729492 8.60449 0.925368 8.60449 1.16699C8.60449 1.40862 8.40862 1.60449 8.16699 1.60449H5.83398C5.59236 1.60449 5.39648 1.40862 5.39648 1.16699C5.39648 0.925368 5.59236 0.729492 5.83398 0.729492H8.16699Z" fill="#94A3B8"/>
</svg>
