<svg width="24" height="24" viewBox="0 0 24 24" fill="none" xmlns="http://www.w3.org/2000/svg">
<path d="M3 2.99707C9.00376 2.99707 14.9948 2.99707 21 2.99707C21 7.57114 21 12.1363 21 16.7235C18.7055 16.7235 16.4241 16.7235 14.0821 16.7235C14.1135 17.4376 14.0934 18.1349 14.1896 18.8161C14.2755 19.4261 14.9033 19.9026 15.5292 19.9514C15.7531 19.9688 15.979 19.9543 16.2142 19.9543C16.2142 20.3261 16.2142 20.66 16.2142 21.0093C13.4055 21.0093 10.6015 21.0093 7.78394 21.0093C7.78394 20.6726 7.78394 20.3397 7.78394 19.9655C7.91024 19.9655 8.03889 19.966 8.16754 19.9655C9.22678 19.9613 9.88176 19.3082 9.88317 18.2541C9.88411 17.7541 9.88317 17.2541 9.88317 16.7329C7.5844 16.7329 5.30206 16.7329 3 16.7329C3 12.1466 3 7.58241 3 2.99707ZM4.0536 4.05959C4.0536 7.22792 4.0536 10.377 4.0536 13.5373C9.35496 13.5373 14.646 13.5373 19.9375 13.5373C19.9375 10.3714 19.9375 7.22181 19.9375 4.05959C14.6413 4.05959 9.36294 4.05959 4.0536 4.05959ZM4.03952 15.6549C9.35637 15.6549 14.6408 15.6549 19.9337 15.6549C19.9337 15.3051 19.9337 14.968 19.9337 14.6111C19.8196 14.6111 19.7271 14.6111 19.6342 14.6111C14.5413 14.6111 9.44839 14.6111 4.35551 14.6111C4.30057 14.6111 4.23578 14.5928 4.19352 14.6163C4.13342 14.6492 4.04891 14.7107 4.04609 14.7632C4.03201 15.0515 4.03952 15.3408 4.03952 15.6549ZM10.957 16.7376C10.8706 17.8391 11.1739 18.9697 10.4297 19.9425C11.4955 19.9425 12.512 19.9425 13.5661 19.9425C13.1261 19.3397 13.0243 18.687 13.0501 17.9992C13.0628 17.6555 13.0534 17.3104 13.0515 16.9662C13.051 16.8921 13.0412 16.8174 13.0351 16.7376C12.3317 16.7376 11.6537 16.7376 10.957 16.7376Z" fill="black"/>
<path d="M10.9263 5.88752C11.2028 6.16172 11.4409 6.39742 11.7066 6.66082C11.4502 6.89229 11.1906 7.12705 10.9572 7.33786C11.0774 7.64634 11.169 7.9027 11.2807 8.14966C11.3061 8.20554 11.4024 8.25953 11.4681 8.26235C11.7629 8.27456 12.0587 8.26751 12.3663 8.26751C12.3663 8.62764 12.3663 8.961 12.3663 9.31877C12.0174 9.31877 11.669 9.31877 11.3385 9.31877C11.2122 9.6249 11.0972 9.90426 10.9699 10.2137C11.2052 10.4292 11.4625 10.6649 11.7188 10.8996C11.4235 11.1795 11.1775 11.4124 10.899 11.6762C10.699 11.4504 10.468 11.1893 10.2595 10.9541C9.90928 11.0992 9.62334 11.2175 9.31909 11.3438C9.31909 11.672 9.31909 12.0138 9.31909 12.3707C8.97071 12.3707 8.63782 12.3707 8.2622 12.3707C8.2622 12.0965 8.25328 11.819 8.26549 11.5424C8.273 11.3767 8.22652 11.2926 8.05514 11.248C7.87625 11.2015 7.70112 11.1217 7.53961 11.0306C7.41894 10.9626 7.35039 10.9766 7.26212 11.0757C7.06962 11.2908 6.86585 11.4955 6.67053 11.7006C6.41417 11.4288 6.18176 11.1823 5.93197 10.9175C6.14654 10.7231 6.40478 10.4883 6.63531 10.2794C6.50572 9.94464 6.409 9.67467 6.29256 9.41361C6.2719 9.36666 6.17143 9.33333 6.10663 9.33145C5.81177 9.323 5.51598 9.32769 5.20703 9.32769C5.20703 8.97226 5.20703 8.63937 5.20703 8.26705C5.48452 8.26705 5.76294 8.26047 6.0409 8.26939C6.1996 8.27456 6.29491 8.24826 6.33764 8.0628C6.38083 7.87593 6.49727 7.70738 6.55972 7.52332C6.58273 7.45524 6.57287 7.33833 6.52779 7.29044C6.31979 7.0693 6.09442 6.86412 5.8822 6.66035C6.1503 6.39554 6.39304 6.15561 6.66348 5.88799C6.85505 6.08988 7.05788 6.29506 7.25038 6.50963C7.34335 6.61292 7.42035 6.63828 7.54853 6.56081C7.68751 6.47676 7.8401 6.39366 7.99692 6.36549C8.24342 6.32088 8.28051 6.18425 8.26596 5.96968C8.24905 5.72225 8.2622 5.47293 8.2622 5.21094C8.62185 5.21094 8.95427 5.21094 9.32191 5.21094C9.32191 5.5058 9.32895 5.79972 9.31909 6.09317C9.31439 6.23402 9.35759 6.29036 9.49845 6.33356C9.73602 6.40634 9.96045 6.51949 10.2347 6.63452C10.4516 6.40211 10.6892 6.14434 10.9263 5.88752ZM7.28795 8.79056C7.28325 9.62208 7.95419 10.3029 8.78384 10.309C9.60738 10.3151 10.2957 9.63476 10.3018 8.80746C10.3079 7.9797 9.63179 7.29796 8.80121 7.2942C7.96687 7.29044 7.29264 7.95763 7.28795 8.79056Z" fill="black"/>
<path d="M13.5938 7.21979C13.5938 6.85122 13.5938 6.52349 13.5938 6.16713C14.6525 6.16713 15.7038 6.16713 16.7747 6.16713C16.7747 5.80513 16.7747 5.47177 16.7747 5.11963C17.1335 5.11963 17.4729 5.11963 17.8377 5.11963C17.8377 5.44923 17.8377 5.78306 17.8377 6.14976C18.2002 6.14976 18.5392 6.14976 18.8885 6.14976C18.8885 6.51692 18.8885 6.85075 18.8885 7.21322C18.5462 7.21322 18.2073 7.21322 17.8443 7.21322C17.8443 7.57428 17.8443 7.90717 17.8443 8.25696C17.4809 8.25696 17.1419 8.25696 16.7846 8.25696C16.7846 7.91234 16.7846 7.57804 16.7846 7.21979C15.7155 7.21979 14.6638 7.21979 13.5938 7.21979Z" fill="black"/>
<path d="M18.8902 10.3764C18.8902 10.7539 18.8902 11.0868 18.8902 11.4436C17.8282 11.4436 16.7774 11.4436 15.7078 11.4436C15.7078 11.8 15.7078 12.1333 15.7078 12.4836C15.3416 12.4836 14.9946 12.4836 14.6284 12.4836C14.6284 12.1343 14.6284 11.8009 14.6284 11.4441C14.2777 11.4441 13.9453 11.4441 13.6016 11.4441C13.6016 11.0877 13.6016 10.7553 13.6016 10.3942C13.9349 10.3942 14.2669 10.3942 14.62 10.3942C14.62 10.0346 14.62 9.70122 14.62 9.34814C14.9862 9.34814 15.3313 9.34814 15.6998 9.34814C15.6998 9.68197 15.6998 10.0149 15.6998 10.3759C16.7718 10.3764 17.8221 10.3764 18.8902 10.3764Z" fill="black"/>
</svg>
