<svg width="24" height="24" viewBox="0 0 24 24" fill="none" xmlns="http://www.w3.org/2000/svg">
<path d="M11.5 19.9297V21.8583" stroke="#A700FF" stroke-width="1.92857" stroke-linecap="round" stroke-linejoin="round"/>
<path d="M16 14.1426V15.4283C16 16.6218 15.5259 17.7664 14.682 18.6103C13.8381 19.4542 12.6935 19.9283 11.5 19.9283C10.3065 19.9283 9.16193 19.4542 8.31802 18.6103C7.47411 17.7664 7 16.6218 7 15.4283V14.1426" stroke="#A700FF" stroke-width="1.92857" stroke-linecap="round" stroke-linejoin="round"/>
<path d="M13.4275 10.9286C13.4275 9.86345 12.564 9 11.4989 9C10.4338 9 9.57031 9.86345 9.57031 10.9286V15.4286C9.57031 16.4937 10.4338 17.3571 11.4989 17.3571C12.564 17.3571 13.4275 16.4937 13.4275 15.4286V10.9286Z" stroke="#A700FF" stroke-width="1.92857" stroke-linecap="round" stroke-linejoin="round"/>
<path d="M11.5 3L13 4.5L11.5 6" stroke="#A700FF" stroke-width="1.5878" stroke-linecap="round" stroke-linejoin="round"/>
<path d="M13 4.5L9 4.5" stroke="#A700FF" stroke-width="1.5878" stroke-linecap="round" stroke-linejoin="round"/>
<path d="M4.5878 7.55736V2.79395H3" stroke="#A700FF" stroke-width="1.5878" stroke-linecap="round" stroke-linejoin="round"/>
<path d="M3 7.55664H6.17561" stroke="#A700FF" stroke-width="1.5878" stroke-linecap="round" stroke-linejoin="round"/>
<path d="M20.3809 1.88086C20.617 1.88092 20.8163 1.93475 20.9443 2.07129L21.0195 2.16602C21.0847 2.26482 21.119 2.37512 21.1191 2.49512V8.40234C21.1191 8.53526 21.0794 8.65793 21.002 8.7666L21.001 8.76758C20.9494 8.83927 20.8721 8.88405 20.7852 8.91113C20.6981 8.93821 20.5934 8.9502 20.4756 8.9502C20.3226 8.95008 20.1872 8.90261 20.0752 8.80664L20.0713 8.80371C19.9849 8.7239 19.9098 8.64238 19.8477 8.55957L17.0615 4.92285V8.33594C17.0614 8.49643 16.9991 8.63881 16.8857 8.75977C16.7577 8.89634 16.5586 8.95018 16.3223 8.9502C16.0846 8.95014 15.8846 8.8926 15.7568 8.74805C15.6476 8.62419 15.5841 8.48592 15.584 8.33594V2.44824C15.584 2.31031 15.6228 2.1841 15.7012 2.07422C15.7521 1.99962 15.8303 1.95192 15.9189 1.92285C16.0081 1.89368 16.1152 1.88089 16.2363 1.88086C16.3874 1.88086 16.5194 1.92777 16.6211 2.02734H16.6221C16.6654 2.0673 16.7057 2.10773 16.7432 2.14844L16.8467 2.27246L19.6426 6.03223V2.49512C19.6427 2.34524 19.7061 2.20692 19.8154 2.08301C19.9431 1.93853 20.1433 1.88092 20.3809 1.88086Z" fill="#A700FF" stroke="#A700FF" stroke-width="0.238171"/>
</svg>
