<svg width="24" height="24" viewBox="0 0 24 24" fill="none" xmlns="http://www.w3.org/2000/svg">
<g clip-path="url(#clip0_97_27295)">
<path d="M14.6309 15.5098C14.6309 15.2265 14.6288 14.9897 14.6316 14.7536C14.6366 14.3061 14.8501 14.0911 15.2948 14.0834C15.3893 14.082 15.4837 14.0834 15.6084 14.0834C15.6084 13.817 15.6042 13.5809 15.6092 13.3455C15.638 12.0304 16.481 10.9951 17.7672 10.6927C18.9173 10.4221 20.1577 11.024 20.7286 12.1269C20.945 12.5442 21.0155 12.9924 21.0155 13.4561C21.0155 13.6556 21.0155 13.8557 21.0155 14.0841C21.174 14.0841 21.2952 14.0791 21.4158 14.0848C21.7533 14.101 21.9909 14.3145 21.993 14.6486C22.0014 15.9172 22.0021 17.1851 21.993 18.4537C21.9909 18.7962 21.7449 19.0182 21.3932 19.0259C21.0246 19.0344 20.656 19.028 20.2635 19.028C20.2388 19.293 20.2134 19.5348 20.1937 19.7772C20.1408 20.4263 20.0943 21.0768 20.0372 21.7259C20.0076 22.0663 19.7913 22.2665 19.4516 22.2883C19.3811 22.2925 19.3106 22.2897 19.2401 22.2897C13.7612 22.2897 8.28305 22.2897 2.80416 22.2897C2.18537 22.2897 1.9979 22.103 2.00002 21.4884C2.00213 20.4665 2.00425 19.4446 2.00847 18.4234C2.01411 17.1181 2.73509 16.1758 3.98747 15.8305C5.25042 15.4823 6.51337 15.1314 7.77844 14.7903C7.93701 14.7473 7.96873 14.6747 7.98705 14.521C8.04273 14.0608 7.90459 13.793 7.46763 13.5308C5.9566 12.6238 5.19968 11.2417 5.18065 9.47346C5.17008 8.5044 5.18206 7.53534 5.18558 6.56699C5.19404 4.23842 6.92355 2.65198 9.24718 2.85284C10.4347 2.95574 11.606 2.89019 12.7506 2.54697C13.1791 2.418 13.5963 2.25026 14.015 2.09028C14.5449 1.8873 14.8332 2.02826 14.9791 2.57446C15.175 3.30601 15.2617 4.05025 15.1123 4.79519C15.0446 5.13278 14.8677 5.44781 14.7472 5.77623C14.6915 5.92705 14.614 6.08351 14.6126 6.23856C14.6006 7.31334 14.6204 8.38811 14.6027 9.46218C14.5703 11.4532 13.6407 12.8888 11.8774 13.8001C11.7935 13.843 11.7111 13.9755 11.7068 14.07C11.6772 14.7184 11.6836 14.7191 12.2967 14.884C13.0607 15.087 13.8233 15.2928 14.6309 15.5098ZM6.3992 6.99267C6.39004 7.0709 6.38088 7.11318 6.38088 7.15547C6.37735 7.97441 6.3689 8.79406 6.37383 9.61301C6.37735 10.2156 6.55354 10.7738 6.85378 11.2953C7.58744 12.5716 9.13865 13.2715 10.582 12.9755C12.0656 12.671 13.2446 11.4518 13.3666 9.96962C13.4504 8.95475 13.4025 7.9286 13.4117 6.90809C13.4117 6.8947 13.3948 6.88131 13.4258 6.92642C12.8013 6.94968 12.2164 6.98632 11.6307 6.98985C10.0013 6.9983 8.37115 6.99267 6.74172 6.99267C6.636 6.99267 6.5317 6.99267 6.3992 6.99267ZM8.12378 15.944C8.06246 15.9552 8.02017 15.9609 7.9793 15.9722C6.76639 16.3027 5.55559 16.6396 4.34127 16.9638C3.60055 17.1611 3.2087 17.6396 3.20095 18.4036C3.1932 19.1168 3.1939 19.8294 3.19108 20.5426C3.19038 20.7167 3.19108 20.8901 3.19108 21.0754C5.22223 21.0754 7.22237 21.0754 9.24577 21.0754C9.24577 19.7349 9.24718 18.4163 9.24013 17.0977C9.24013 17.0427 9.16402 16.9659 9.10482 16.9377C8.66574 16.727 8.34085 16.4077 8.12378 15.944ZM16.3463 19.0295C15.9834 19.0295 15.6423 19.0323 15.3012 19.0287C14.8614 19.0238 14.6352 18.799 14.6316 18.3613C14.6281 17.8948 14.6239 17.4282 14.6345 16.9624C14.638 16.8017 14.5844 16.7291 14.4308 16.6889C13.5392 16.4521 12.6484 16.2111 11.7604 15.9623C11.6053 15.9186 11.5405 15.97 11.4764 16.099C11.2974 16.457 11.0218 16.7284 10.6567 16.8884C10.4777 16.9666 10.4389 17.0737 10.4404 17.2513C10.4467 18.4396 10.4432 19.6271 10.4446 20.8153C10.4446 20.9006 10.4545 20.9852 10.4601 21.074C12.4807 21.074 14.4794 21.074 16.5007 21.074C16.4478 20.384 16.3978 19.7215 16.3463 19.0295ZM15.8319 17.8229C17.5036 17.8229 19.1436 17.8229 20.7934 17.8229C20.7934 16.9645 20.7934 16.1251 20.7934 15.2836C19.1288 15.2836 17.4824 15.2836 15.8319 15.2836C15.8319 16.1406 15.8319 16.9729 15.8319 17.8229ZM6.48941 5.79878C6.69873 5.79878 6.89184 5.79878 7.08424 5.79878C8.87929 5.79878 10.6743 5.8009 12.4694 5.79737C13.2235 5.79597 13.8493 5.31602 13.9431 4.62041C13.9952 4.23419 13.9522 3.83459 13.9522 3.44203C13.9163 3.43991 13.8973 3.43357 13.8818 3.43851C13.7979 3.46388 13.714 3.49136 13.6309 3.51955C12.2474 3.98893 10.8308 4.18627 9.37122 4.06082C9.04984 4.03333 8.7186 4.01501 8.40075 4.05941C7.45424 4.19191 6.65362 4.92416 6.48941 5.79878ZM19.8237 14.0679C19.8237 13.7902 19.83 13.5365 19.8223 13.2828C19.8039 12.6654 19.3783 12.098 18.8011 11.9113C18.1837 11.7111 17.5381 11.9063 17.1378 12.3961C16.729 12.8965 16.8087 13.4773 16.8207 14.0679C17.8221 14.0679 18.8025 14.0679 19.8237 14.0679ZM17.7601 21.0973C17.9617 21.0973 18.1372 21.0973 18.3119 21.0973C18.8821 21.0973 18.8842 21.0973 18.9364 20.5334C18.9815 20.0443 19.0195 19.5552 19.0632 19.0471C18.6122 19.0471 18.195 19.0471 17.7608 19.0471C17.7601 19.7279 17.7601 20.3932 17.7601 21.0973ZM9.19996 14.2145C9.19996 14.6056 9.1767 14.9996 9.20771 15.3893C9.23097 15.6776 9.52838 15.8862 9.83144 15.8904C10.1338 15.8946 10.4404 15.7036 10.4707 15.4105C10.5115 15.0158 10.4805 14.6134 10.4805 14.2145C10.0513 14.2145 9.6334 14.2145 9.19996 14.2145Z" fill="black"/>
</g>
<defs>
<clipPath id="clip0_97_27295">
<rect width="20" height="20.2904" fill="white" transform="translate(2 2)"/>
</clipPath>
</defs>
</svg>
